<?xml version="1.0" encoding="UTF-8"?>
<svg id="Laag_2" data-name="Laag 2" xmlns="http://www.w3.org/2000/svg" xmlns:xlink="http://www.w3.org/1999/xlink" viewBox="0 0 1895.5 553.02">
  <defs>
    <style>
      .cls-1 {
        fill: #000e72;
      }

      .cls-2 {
        fill: url(#linear-gradient-3);
      }

      .cls-3 {
        fill: url(#linear-gradient-2);
      }

      .cls-4 {
        fill: #1a5356;
      }

      .cls-5 {
        fill: #fdfefd;
      }

      .cls-6 {
        fill: url(#linear-gradient);
      }

      .cls-7 {
        fill: #ffca3a;
      }

      .cls-8 {
        fill: #fff;
      }

      .cls-9 {
        fill: #c3fbea;
      }

      .cls-10 {
        fill: #099f8a;
      }

      .cls-11 {
        fill: #f72585;
      }

      .cls-12 {
        fill: #45dcff;
      }
    </style>
    <linearGradient id="linear-gradient" x1="495.5" y1="276.51" x2="1895.5" y2="276.51" gradientUnits="userSpaceOnUse">
      <stop offset="0" stop-color="#099f8a"/>
      <stop offset="1" stop-color="#000e72"/>
    </linearGradient>
    <linearGradient id="linear-gradient-2" x1="5.19" y1="277.05" x2="441.49" y2="277.05" gradientUnits="userSpaceOnUse">
      <stop offset="0" stop-color="#000e72"/>
      <stop offset="1" stop-color="#099f8a"/>
    </linearGradient>
    <linearGradient id="linear-gradient-3" x1="42.75" y1="276" x2="402.72" y2="276" xlink:href="#linear-gradient-2"/>
  </defs>
  <g id="Layer_1" data-name="Layer 1">
    <path class="cls-6" d="M495.5,248.43v-27.97h79.85c11.19,0,16.2-5.98,16.2-17.55v-85.06h30.28v88.15c0,28.35-12.54,42.43-39.93,42.43h-86.41ZM680.87,248.43c-27,0-39.93-14.27-39.93-42.43v-88.15h30.67v85.06c0,11.57,5.21,17.55,15.82,17.55h90.27v-102.62h29.9v130.58h-126.73ZM965.77,248.43v-85.06c0-11.77-5.21-17.75-16.01-17.75h-91.23v102.81h-30.28V117.85h127.88c27.2,0,39.93,14.27,39.93,42.43v88.15h-30.28ZM1015.92,248.43V117.85h30.28v130.58h-30.28ZM1105.04,248.43c-27.39,0-40.12-14.08-40.12-42.43v-45.71c0-28.35,12.73-42.43,40.12-42.43h91.24c27.39,0,39.93,14.08,39.93,42.43v45.71c0,28.35-12.54,42.43-39.93,42.43h-91.24ZM1205.92,163.37c0-11.96-5.02-17.75-16.2-17.75h-78.12c-11.19,0-16.2,5.79-16.2,17.75v39.54c0,11.57,5.02,17.55,16.2,17.55h78.12c11.19,0,16.2-5.98,16.2-17.55v-39.54ZM1400.74,248.43c-2.12-1.54-3.28-3.86-3.28-8.49v-24.3c0-8.49-5.4-11.77-13.7-11.77h-98.18v44.56h-30.28V117.85h140.04c22.18,0,30.28,10.42,30.28,29.51v16.78c0,21.6-10.61,24.88-18.52,26.04,8.1.77,20.45,5.02,20.45,25.08v24.69c0,4.63,1.35,6.94,3.47,8.49h-30.28ZM1395.53,154.5c0-7.52-3.09-11.38-11.19-11.38h-98.76v36.65h97.41c7.52,0,12.54-2.89,12.54-11.38v-13.89ZM531.18,435.17c-22.18,0-30.28-10.42-30.28-29.51v-17.75c0-19.1,8.1-29.51,30.28-29.51h110.72v-8.29c0-11.96-5.21-17.75-16.2-17.75h-121.52v-27.78h128.08c27.2,0,39.73,14.08,39.73,42.43v88.15h-140.81ZM641.9,380.2h-99.72c-8.1,0-11.19,4.05-11.19,11.38v6.56c0,7.72,3.09,11.77,11.19,11.77h99.72v-29.7ZM691.86,435.17v-130.58h30.28v130.58h-30.28ZM852.35,435.17c-27.2,0-39.93-14.08-39.93-42.43v-88.15h30.28v85.06c0,11.57,5.21,17.55,16.01,17.55h97.6v27.97h-103.97ZM1009.17,435.17c-27.39,0-40.12-14.08-40.12-42.43v-58.64c0-19.1,8.29-29.51,30.67-29.51h110.33c22.38,0,30.28,10.42,30.28,29.51v18.32c0,19.1-7.91,29.51-30.28,29.51h-110.52v7.71c0,11.57,5.02,17.55,16.2,17.55h121.33v27.97h-127.88ZM1110.24,341.23c0-7.52-3.09-11.38-11.19-11.38h-88.34c-8.1,0-11.19,3.86-11.19,11.38v18.71h99.53c8.1,0,11.19-4.24,11.19-11.57v-7.14ZM1189.71,435.17c-22.18,0-30.28-10.42-30.28-29.51v-17.75c0-19.1,8.1-29.51,30.28-29.51h110.72v-8.29c0-11.96-5.21-17.75-16.2-17.75h-121.52v-27.78h128.08c27.2,0,39.73,14.08,39.73,42.43v88.15h-140.81ZM1300.43,380.2h-99.72c-8.1,0-11.19,4.05-11.19,11.38v6.56c0,7.72,3.09,11.77,11.19,11.77h99.72v-29.7ZM1379.52,435.17c-22.37,0-30.67-10.42-30.67-34.53v-53.62c0-28.35,12.73-42.43,40.12-42.43h126.73v27.78h-120.17c-11.19,0-16.2,5.79-16.2,17.75v46.49c0,9.07,3.09,13.31,11.19,13.31h98.18v-45.91h30.09v71.17h-139.26ZM1578.39,435.17c-27,0-39.93-14.27-39.93-42.43v-88.15h30.67v85.06c0,11.57,5.21,17.55,15.82,17.55h90.27v-102.62h29.9v130.58h-126.73ZM1764.34,435.17c-27.39,0-40.12-14.08-40.12-42.43v-58.64c0-19.1,8.29-29.51,30.67-29.51h110.33c22.38,0,30.28,10.42,30.28,29.51v18.32c0,19.1-7.91,29.51-30.28,29.51h-110.52v7.71c0,11.57,5.01,17.55,16.2,17.55h121.33v27.97h-127.88ZM1865.41,341.23c0-7.52-3.09-11.38-11.19-11.38h-88.34c-8.1,0-11.19,3.86-11.19,11.38v18.71h99.53c8.1,0,11.19-4.24,11.19-11.57v-7.14Z"/>
    <g>
      <g>
        <path class="cls-3" d="M223.38,6.28c5.43,3.67,10.54,7.84,15.81,11.73,6.79,4.99,13.75,9.74,20.86,14.26,5.32,3.38,10.7,6.66,16.15,9.83,5.44,3.18,10.94,6.25,16.5,9.22,5.56,2.97,11.17,5.84,16.84,8.6,5.67,2.76,11.38,5.42,17.15,7.97,5.76,2.55,11.58,4.99,17.43,7.32,5.86,2.33,11.75,4.55,17.69,6.67,5.94,2.11,11.91,4.11,17.93,6,6.01,1.89,12.06,3.67,18.14,5.33,14.36,4.02,28.87,7.19,43.4,10.5.33,7.45-.05,15.06-.06,22.53l.09,39.1c-.05,18.26.47,36.54-.02,54.8-.76,28.49-3.99,57.88-11.48,85.43-16.87,62.07-43.46,110.26-88.55,156.19-5.18,5.26-10.49,10.39-15.93,15.38-5.44,4.99-11.01,9.84-16.7,14.54-5.69,4.71-11.5,9.26-17.42,13.67-5.92,4.41-11.95,8.66-18.09,12.76-15.97,10.76-32.79,20.14-49.49,29.71-.02,0-.04,0-.06,0-1.71.04-11.37-5.82-13.53-7.05-36.88-20.9-71.43-45.65-101.45-75.67C50.64,407.16,14.18,336.58,6.67,254.35c-1.94-21.24-1.41-42.59-1.4-63.89v-86.87c3.9-.73,7.78-1.5,11.66-2.31,3.88-.82,7.74-1.68,11.6-2.58,3.86-.9,7.7-1.85,11.54-2.85,3.84-.99,7.66-2.03,11.47-3.11,3.81-1.08,7.61-2.21,11.4-3.38,3.79-1.17,7.56-2.38,11.32-3.64,3.76-1.26,7.5-2.56,11.23-3.9,3.73-1.34,7.44-2.73,11.14-4.15,3.7-1.43,7.37-2.9,11.04-4.41,3.66-1.51,7.31-3.07,10.93-4.66,3.63-1.6,7.23-3.23,10.82-4.91,3.59-1.68,7.16-3.4,10.71-5.16,3.55-1.76,7.08-3.56,10.58-5.41,3.51-1.84,6.99-3.73,10.46-5.65,3.46-1.92,6.9-3.89,10.32-5.89,3.42-2,6.81-4.04,10.18-6.13,9.32-5.84,18.48-12.17,27.39-18.63,4.8-3.48,9.44-7.19,14.33-10.53Z"/>
        <path class="cls-8" d="M223.54,553.02c-2.14,0-4.67-1.06-14.51-6.82-.67-.39-1.21-.71-1.55-.9-40.44-22.92-73.99-47.94-102.56-76.51-29.81-29.81-53.65-62.66-70.86-97.65C16.18,334.79,5.23,295.66,1.5,254.83-.13,237.04-.05,219.01.04,201.57c.02-3.64.03-7.41.04-11.11v-91.19s4.25-.79,4.25-.79c3.84-.72,7.73-1.49,11.54-2.29,3.82-.8,7.68-1.66,11.48-2.55,3.8-.89,7.65-1.84,11.42-2.82,3.78-.98,7.6-2.02,11.36-3.08,3.75-1.06,7.55-2.19,11.28-3.34,3.73-1.15,7.5-2.36,11.2-3.6,3.71-1.24,7.45-2.54,11.11-3.86,3.67-1.32,7.38-2.71,11.02-4.11,3.64-1.41,7.32-2.88,10.93-4.37,3.61-1.49,7.25-3.04,10.82-4.62,3.57-1.57,7.18-3.21,10.71-4.86,3.53-1.65,7.1-3.37,10.6-5.11,3.5-1.74,7.02-3.54,10.48-5.35,3.46-1.82,6.94-3.7,10.35-5.59,3.41-1.89,6.85-3.85,10.22-5.83,3.37-1.97,6.76-4.01,10.07-6.06,8.27-5.18,17.13-11.21,27.08-18.42,1.81-1.31,3.65-2.7,5.43-4.04,2.91-2.19,5.92-4.46,9.03-6.58l2.92-1.99,2.92,1.98c3.63,2.46,7.12,5.12,10.49,7.7,1.8,1.37,3.66,2.8,5.49,4.15,6.66,4.89,13.58,9.62,20.56,14.05,5.24,3.33,10.62,6.6,15.98,9.73,5.36,3.13,10.86,6.2,16.33,9.13,5.48,2.93,11.08,5.79,16.66,8.51,5.58,2.72,11.29,5.37,16.97,7.89,5.68,2.51,11.48,4.95,17.25,7.25,5.77,2.3,11.66,4.52,17.51,6.6,5.85,2.08,11.82,4.08,17.74,5.94,5.92,1.86,11.96,3.64,17.95,5.27,12.29,3.44,24.94,6.31,37.17,9.08,2.01.45,4.01.91,6.02,1.37l3.86.88.18,3.95c.23,5.09.13,10.24.04,15.21-.05,2.49-.09,5.06-.1,7.56l.09,39.08c-.02,6.56.04,13.22.1,19.66.1,11.55.2,23.5-.11,35.28-.85,32.19-4.78,61.35-11.66,86.66-8.72,32.07-19.9,59.98-34.18,85.33-14.6,25.92-32.82,49.85-55.68,73.14-5.22,5.31-10.65,10.54-16.13,15.57-5.48,5.03-11.17,9.98-16.9,14.72-5.73,4.74-11.66,9.39-17.63,13.83-5.96,4.44-12.13,8.78-18.31,12.91-14.19,9.56-29.22,18.14-43.75,26.44-2.01,1.15-4.03,2.3-6.04,3.45l-.84.48-.9.14c-.27.05-.54.07-.81.08-.04,0-.08,0-.11,0ZM224.47,542.74h0,0ZM10.46,107.88v82.58c0,3.72-.02,7.5-.04,11.16-.08,17.19-.16,34.97,1.42,52.26,3.61,39.57,14.22,77.47,31.53,112.66,16.7,33.96,39.88,65.89,68.89,94.89,27.9,27.9,60.72,52.37,100.34,74.82.37.21.95.55,1.68.97,4.15,2.43,7.1,4.07,8.81,4.91,1.34-.76,2.67-1.53,4.01-2.29,14.37-8.21,29.23-16.69,43.11-26.05,6.06-4.04,12.07-8.29,17.9-12.62,5.82-4.33,11.61-8.88,17.21-13.51,5.59-4.63,11.14-9.46,16.5-14.37,5.35-4.91,10.65-10.02,15.74-15.19,22.21-22.62,39.88-45.83,54.03-70.95,13.86-24.6,24.72-51.73,33.21-82.96,6.66-24.51,10.46-52.84,11.3-84.21.31-11.6.21-23.46.11-34.92-.06-6.47-.11-13.16-.1-19.75l-.09-39.07c0-2.6.05-5.22.1-7.75.06-3.5.13-7.09.08-10.62-.69-.16-1.39-.32-2.08-.47-12.36-2.8-25.13-5.7-37.64-9.2-6.09-1.66-12.25-3.48-18.3-5.38-6.05-1.9-12.14-3.94-18.11-6.06-5.97-2.12-11.99-4.39-17.87-6.73-5.89-2.34-11.81-4.83-17.61-7.4-5.8-2.56-11.63-5.27-17.32-8.05-5.69-2.78-11.42-5.7-17.01-8.69-5.59-2.99-11.2-6.12-16.67-9.32-5.47-3.19-10.96-6.54-16.31-9.93-7.18-4.56-14.29-9.42-21.15-14.46-1.91-1.41-3.81-2.86-5.64-4.26-2.32-1.77-4.69-3.58-7.09-5.31-1.93,1.39-3.84,2.83-5.71,4.24-1.81,1.37-3.69,2.78-5.58,4.15-10.15,7.36-19.21,13.52-27.68,18.83l-.03.02c-3.39,2.09-6.85,4.17-10.29,6.19-3.44,2.02-6.95,4.02-10.43,5.95-3.48,1.93-7.03,3.85-10.56,5.71-3.53,1.85-7.12,3.69-10.69,5.46-3.57,1.77-7.21,3.53-10.81,5.21-3.61,1.69-7.29,3.36-10.93,4.96-3.64,1.6-7.36,3.19-11.04,4.71-3.68,1.52-7.43,3.02-11.15,4.45-3.72,1.44-7.5,2.85-11.25,4.2-3.74,1.35-7.56,2.67-11.34,3.94-3.78,1.26-7.62,2.5-11.43,3.67-3.81,1.18-7.68,2.32-11.51,3.41-3.83,1.09-7.73,2.14-11.59,3.14-3.85,1-7.77,1.97-11.65,2.88-3.88.91-7.82,1.79-11.72,2.61-2.49.52-5.01,1.03-7.53,1.53Z"/>
      </g>
      <g>
        <path class="cls-10" d="M224.09,28.74c13.23,11.8,27.72,22.01,42.58,31.62,4.11,2.61,8.26,5.14,12.47,7.58,1.79,1.06,4.27,2.15,5.79,3.5,10.52,5.41,20.81,11.18,31.51,16.25,10.08,4.68,20.29,9.07,30.62,13.16,10.33,4.09,20.78,7.88,31.33,11.37,9.17,3.1,18.53,5.92,27.84,8.56,4.82,1.37,9.85,2.45,14.57,4.11.05,8.73.32,17.81.32,26.47,0,8.05,0,15.93.03,23.8.08,18.65.33,37.96-.94,56.55-2.42,35.4-9.52,73.56-22.16,106.86-18.91,49.8-51.32,94.02-90.82,129.48-20.03,17.98-41.85,33.12-64.92,46.9-5.9,3.53-12.27,7.81-18.64,10.41-4.15-2.93-9.16-5.12-13.6-7.64-8.1-4.61-16.02-9.52-23.76-14.71-4.33-2.92-8.6-5.92-12.82-9.01-4.21-3.08-8.37-6.25-12.46-9.49-4.09-3.25-8.12-6.57-12.08-9.97-3.96-3.4-7.86-6.88-11.69-10.43s-7.59-7.18-11.28-10.87c-3.69-3.7-7.3-7.47-10.85-11.3-3.54-3.84-7.01-7.74-10.4-11.71-3.39-3.97-6.7-8.01-9.94-12.11-6.17-7.88-11.34-16.38-17.29-24.38-6.53-10.15-12.63-20.24-17.99-31.08C22.05,286.84,23.93,206.57,24.79,124.36c14.42-3.82,28.93-8.49,43.02-13.4,7.48-2.61,14.89-5.71,22.46-8.01,15.23-6.46,30.54-12.41,45.55-19.43,6.21-2.95,12.35-6.03,18.42-9.25,6.07-3.22,12.07-6.57,17.99-10.06,5.92-3.49,11.76-7.1,17.52-10.85,5.76-3.75,11.43-7.62,17.02-11.62,5.82-4.17,11.83-8.4,17.33-12.99Z"/>
        <path class="cls-1" d="M421.18,175.16c-.03-7.88-.03-15.76-.03-23.8,0-8.66-.27-17.74-.32-26.47-4.72-1.66-9.75-2.74-14.57-4.11-9.31-2.65-18.67-5.46-27.84-8.56-10.55-3.49-21-7.27-31.33-11.37-10.33-4.09-20.54-8.48-30.62-13.16-10.7-5.06-20.99-10.84-31.51-16.25-1.52-1.36-4-2.45-5.79-3.5-4.21-2.44-8.37-4.96-12.47-7.58-14.86-9.61-29.36-19.82-42.58-31.62-.41.34-.83.68-1.25,1.02v495.05c.28.18.56.36.83.56,6.37-2.6,12.74-6.88,18.64-10.41,23.07-13.78,44.9-28.92,64.92-46.9,39.5-35.46,71.9-79.68,90.82-129.48,12.64-33.3,19.75-71.46,22.16-106.86,1.27-18.6,1.02-37.9.94-56.55Z"/>
      </g>
      <path class="cls-2" d="M223.86,50.71c12,10.7,25.15,19.97,38.63,28.69,3.72,2.37,7.5,4.66,11.32,6.87,1.63.96,3.87,1.95,5.25,3.18,9.54,4.91,18.88,10.15,28.59,14.74,9.14,4.25,18.4,8.23,27.78,11.94,9.38,3.71,18.85,7.15,28.42,10.31,8.32,2.81,16.81,5.37,25.26,7.77,4.37,1.24,8.94,2.22,13.21,3.73.05,7.92.29,16.16.29,24.02,0,7.3,0,14.45.03,21.6.07,16.92.3,34.44-.85,51.31-2.19,32.12-8.64,66.74-20.11,96.95-17.16,45.18-46.56,85.3-82.39,117.47-18.17,16.31-37.97,30.05-58.9,42.55-5.36,3.2-11.13,7.08-16.91,9.44-3.76-2.66-8.31-4.64-12.34-6.93-7.35-4.19-14.53-8.64-21.55-13.35-3.93-2.65-7.8-5.37-11.63-8.17-3.82-2.8-7.59-5.67-11.3-8.61-3.71-2.94-7.37-5.96-10.96-9.05-3.6-3.09-7.13-6.24-10.6-9.46-3.47-3.22-6.88-6.51-10.23-9.87-3.35-3.35-6.63-6.77-9.84-10.25-3.21-3.48-6.36-7.02-9.44-10.63-3.08-3.6-6.08-7.27-9.02-10.98-5.6-7.15-10.29-14.86-15.69-22.12-5.92-9.21-11.46-18.36-16.32-28.2-34.01-68.78-32.3-141.6-31.53-216.19,13.08-3.46,26.25-7.7,39.03-12.16,6.79-2.37,13.51-5.18,20.38-7.27,13.82-5.86,27.71-11.26,41.32-17.63,5.63-2.67,11.2-5.47,16.71-8.39,5.51-2.92,10.95-5.96,16.32-9.13,5.37-3.16,10.67-6.45,15.9-9.85,5.23-3.4,10.37-6.91,15.44-10.54,5.28-3.78,10.73-7.62,15.72-11.79Z"/>
      <path class="cls-5" d="M383.09,142.05c3.28,1.25,6.65,2.23,10.01,3.24l.26,51.11c-3.09-.07-6.18.02-9.26.08-.05-14.87,0-29.75.17-44.62-2.51-.32-5-1.05-7.45-1.66,2.13-2.68,4.23-5.4,6.28-8.15Z"/>
      <path class="cls-5" d="M64.45,298.35h10.63c.77,8.76,12.24,38.4,17.2,46.53-2.49,2.68-4.72,5.34-7.41,7.83-2.08-5.07-4.84-9.86-6.95-14.93-2.67-6.42-5.13-12.92-7.38-19.49-2.25-6.58-4.28-13.22-6.09-19.93Z"/>
      <path class="cls-5" d="M52.21,144.79c4.26-1.22,8.53-2.77,12.86-3.69.89,2.88,2.33,4.99,4.33,7.19-2.56.85-5.12,1.54-7.74,2.16-.3,11.31-.35,22.61-.16,33.92.1,4.04.06,8.18.42,12.21h-9.2c-.53-5.87-.32-11.94-.38-17.84-.11-11.32-.15-22.63-.12-33.95Z"/>
      <path class="cls-5" d="M382.51,298.32c-1.52,5.05-2.83,10.15-4.45,15.17-2.16,6.66-13.6,34.89-16.48,39.79-3.42-3.11-6.54-6.68-9.73-10.04,5.45-9.52,16.31-33.88,18.58-44.94h12.08Z"/>
      <path class="cls-5" d="M52.92,206.63c3-.01,6.13-.21,9.11,0-.19,13.16.84,26.85,2.35,39.91.44,3.79.74,7.76,1.52,11.49l.99,6.25c1.15,8.1,3.01,16.34,5.1,24.26.5,1.77-.8,3.65,3.31,3.84-7.5.14-5.9-3.64-13.4-3.65-1.36-8.81-3.45-17.51-4.72-26.36-2.67-18.57-3.75-37.01-4.26-55.75Z"/>
      <path class="cls-5" d="M239.01,361.35c.04,6.1.01,12.2-.07,18.31-.39,8.15-.15,16.4-.14,24.56l-.04,43.8c-3.25.61-6.6,1.1-9.9,1.36.23-25.86-.58-51.81.19-77.65,3.6-3.25,6.8-6.71,9.96-10.38Z"/>
      <path class="cls-5" d="M377.23,264.56c.7-1.74.99-4.26,1.17-6.08.28-5.57,1.86-11.21,2.58-16.76,1.46-11.44,2.37-22.93,2.73-34.46,3.17-.05,6.34-.06,9.51-.02-.65,13.45-.58,26.85-2,40.27-1.46,13.68-4.4,27.04-6.47,40.62l-12.24-.03"/>
      <path class="cls-5" d="M238.72,447.96l.04-43.8c0-8.16-.25-16.41.14-24.56l.03,80.41.04,6.82c14.72-7.01,34.46-21.57,46.06-33.07,2.57,2.41,5.23,4.68,7.76,7.12l-.31.22c-4.33,3.51-8.9,7.2-13.43,10.67-5.8,4.51-11.74,8.82-17.83,12.93-6.09,4.1-12.32,7.99-18.68,11.67-4.46,2.55-9.06,5.19-13.81,7.16,0-7.6-.06-15.21.02-22.8l.05-11.39c3.3-.26,6.64-.75,9.9-1.36Z"/>
      <path class="cls-5" d="M207.09,77.36c0,3.26.06,6.53.02,9.79-5.58,4.43-11.8,7.59-17.63,11.61-2.32,1.35-4.68,2.67-6.97,4.07-8.76,4.6-17.59,9.05-26.49,13.37-2.27,1.11-4.52,2.15-6.88,3.04-5.95,2.36-11.75,5.05-17.65,7.51-7.71,3.13-15.47,6.13-23.27,9.02-9.15,3.4-18.75,5.88-27.74,9.63-1.78-2.53-4.22-4.78-6.17-7.21,9-2.82,18.12-5.79,26.89-9.28,3.68-.56,9.89-3.64,13.57-5.06,11.97-4.55,23.75-9.56,35.34-15.01,11.59-5.45,22.95-11.34,34.09-17.65,7.33-4.16,14.83-8.33,21.69-13.22l1.22-.59Z"/>
      <path class="cls-12" d="M284.36,232.29c-.41,14.71-.18,29.48-.17,44.2,0,6.79.31,13.73-.17,20.51-.11,1.58-2.07,3.71-3.12,4.88-3.39,3.78-7.19,7.28-10.73,10.93l-28.72,29.2c-3.72,3.72-7.39,7.48-11.01,11.3-2.28,2.38-4.58,5.13-7.15,7.17-.22.17-.51.47-.79.46.31-4.59-.66-9.4.13-13.96.61-.15,1.08-.42,1.56-.82,6.3-5.32,12.06-11.55,17.84-17.43l18.31-18.35c4.52-4.59,11.37-10.41,14.96-15.45.61-6.61.16-13.64.16-20.3-.04-14.12.01-28.23.16-42.35l8.74.02Z"/>
      <path class="cls-5" d="M239.08,77.1c10.66,6.75,21.3,13.56,32.32,19.69,20.86,11.62,42.59,21.15,64.86,29.69,11.86,4.55,24.15,9.19,36.47,12.35-2.4,2.45-4.77,4.93-7.09,7.44-11.38-3.54-22.64-7.42-33.79-11.64-11.15-4.22-22.16-8.76-33.04-13.63-2.25-1.05-4.47-2.14-6.68-3.27-2.75-1.9-6.5-3.34-9.53-4.86-5.9-2.98-11.76-6.04-17.57-9.18l-6.93-3.99c-6.4-3.99-12.89-7.9-19.01-12.32v-10.28Z"/>
      <path class="cls-5" d="M90.01,361.98c2.54-2.43,4.89-4.73,7.33-7.25,3.07,5.57,6.34,11.01,9.81,16.34,3.47,5.33,7.12,10.53,10.96,15.59,25.51,34.28,52.74,57.19,89.1,79.37l.08-5.09c3.23.3,6.43.46,9.67.39-.03,7.23.01,14.45.12,21.67-6.56-2.87-12.94-6.85-19.05-10.57-2.04-1.25-4.07-2.53-6.09-3.82-2.01-1.3-4.01-2.62-6-3.96-1.98-1.34-3.95-2.71-5.91-4.1-1.95-1.39-3.89-2.8-5.81-4.23-1.92-1.43-3.82-2.89-5.71-4.36-1.89-1.48-3.76-2.97-5.61-4.49-1.85-1.52-3.69-3.06-5.51-4.62-1.82-1.56-3.62-3.14-5.4-4.74-1.78-1.6-3.55-3.22-5.29-4.87-1.74-1.64-3.47-3.3-5.18-4.99-1.71-1.68-3.39-3.38-5.06-5.1-1.67-1.72-3.32-3.46-4.94-5.22-1.63-1.76-3.24-3.53-4.82-5.33-1.59-1.79-3.15-3.61-4.7-5.44-1.55-1.83-3.07-3.68-4.57-5.54-1.5-1.87-2.99-3.75-4.45-5.65-5.26-6.83-10.25-13.84-14.96-21.06-2.48-3.83-5.52-8.72-7.64-12.37-.12-.15-.26-.42-.38-.56Z"/>
      <path class="cls-5" d="M295.99,291.01c.02-.97-.11-2.07.43-2.89,2.97-.29,6.04-.1,9.03-.1h15.36s50.61.07,50.61.07l13.32.03c-.72,3.41-1.46,6.81-2.23,10.2h-14.01s-48.47-.04-48.47-.04h-15.72c-2.24,0-4.55.17-6.78.03-.84-.05-1.03.02-1.63-.55.16-2.27.15-4.49.09-6.76Z"/>
      <path class="cls-9" d="M162.14,222.09c17.83-.53,35.79-.16,53.63-.15,22.87.01,45.77-.21,68.64.09l-.05,10.26-8.74-.02c-17.55.01-35.22.41-52.76-.2l-50.79-.03c.18,15.57-.34,31.18-.05,46.74l.17,16.44c2.72,4.11,6.96,7.74,10.44,11.25l19.34,19.35c4.1,4.06,8.16,8.16,12.18,12.3,2.74,2.84,5.4,5.82,8.31,8.49l.16.37c-.79,4.56.18,9.38-.13,13.96-16.61-17.16-33.43-34.12-50.46-50.86-3.52-3.51-7.77-7.4-9.29-12.3-1.49-4.8-.64-26.49-.62-33.18l.02-42.49Z"/>
      <path class="cls-5" d="M84.41,288.54l66.32-.13c-.05,3.1-.2,6.27.09,9.36-1.69.95-67.81.53-75.74.59h-10.63c-1.18-3.04-1.82-6.44-2.54-9.62,7.5.01,15-.05,22.5-.2Z"/>
      <path class="cls-9" d="M334.91,258.2c.16-.48.33-.95.52-1.42,1.16-2.85,3.32-5.17,6.2-6.33,3.19-1.29,7.07-1.09,10.17.35,3.54,1.65,5.28,4.31,6.52,7.85,6.69-.19,13.38-.25,20.08-.18-.18,1.82-.41,4.28-1.17,6.08l-19.01-.05c-.26.79-.52,1.58-.87,2.33-1.33,2.9-3.7,5.14-6.72,6.2-3.25,1.14-6.99.78-10.02-.84-3.22-1.71-4.81-4.31-5.89-7.66-12.88.06-25.77.05-38.65-.02l-.03-.14.02-6.33c12.95.15,25.9.2,38.86.15Z"/>
      <path class="cls-7" d="M345.67,255.91c.92,0,1.82,0,2.7.31.18.06.36.14.54.22.18.08.35.17.51.27.17.1.33.21.48.32.16.12.3.24.45.37.14.13.28.27.41.42.13.15.25.3.36.46.11.16.22.32.31.49.1.17.18.34.26.52.08.17.14.35.2.53.06.18.1.36.14.55.04.19.07.37.08.56.02.19.03.38.02.57,0,.19-.01.38-.04.57-.02.19-.06.38-.1.56-.04.19-.09.37-.16.55-.06.18-.13.36-.21.53-.81,1.74-2.25,2.62-3.99,3.24-.88.02-1.77,0-2.62-.27-1.33-.43-2.56-1.43-3.2-2.67-.67-1.29-.74-2.77-.27-4.14.71-2.08,2.2-3.07,4.11-3.94Z"/>
      <path class="cls-10" d="M172.07,232.04l50.79.03c-.02,2.92.05,5.88-.09,8.8-.08,3.5-.1,7-.07,10.51l-.06,37.28v39.6c0,5.66.57,12.89-.17,18.34-2.91-2.67-5.57-5.65-8.31-8.49-4.02-4.14-8.08-8.24-12.18-12.3l-19.34-19.35c-3.48-3.51-7.72-7.14-10.44-11.25l-.17-16.44c-.29-15.56.23-31.17.05-46.74Z"/>
      <path class="cls-1" d="M222.86,232.07c17.54.6,35.21.21,52.76.2-.15,14.12-.2,28.23-.16,42.35,0,6.67.45,13.69-.16,20.3-3.59,5.03-10.44,10.85-14.96,15.45l-18.31,18.35c-5.78,5.87-11.54,12.11-17.84,17.43-.48.4-.94.68-1.56.82l-.16-.37c.74-5.45.17-12.68.17-18.34v-39.6s.06-37.28.06-37.28c-.03-3.5,0-7.01.07-10.51.14-2.92.07-5.88.09-8.8Z"/>
      <path class="cls-9" d="M89.18,258.26c1.58-3.12,3.86-5.54,7.3-6.59.17-.05.33-.1.5-.14.17-.04.34-.08.51-.12.17-.03.34-.06.51-.09.17-.03.34-.05.52-.06.17-.02.35-.03.52-.04.17,0,.35-.01.52-.01.17,0,.35,0,.52.02.17,0,.35.02.52.04.17.02.35.04.52.07.17.03.34.06.51.09.17.04.34.08.51.12.17.04.33.09.5.15.17.05.33.11.49.17.16.06.32.13.48.2.16.07.32.14.47.22.16.08.31.16.46.25,2.33,1.32,3.93,3.35,5.06,5.75l41.05-.07c-.01,2.03-.13,4.12,0,6.14l-40.71.04c-.19.48-.39.96-.6,1.43-1.27,2.84-3.51,5.09-6.48,6.13-2.72.96-5.89.88-8.49-.42-3.1-1.54-4.59-4.17-5.72-7.29l-21.78.05-.99-6.25c7.76.22,15.51.3,23.27.23Z"/>
      <path class="cls-11" d="M97.51,257.44c.76-.06,1.55-.11,2.31-.02,1.39.17,2.81,1.04,3.64,2.17.7.96.94,2.11.68,3.28-.38,1.68-1.66,2.62-3.01,3.53-.88.17-1.76.38-2.65.18-.16-.04-.33-.08-.49-.14-.16-.05-.32-.12-.47-.19-.15-.07-.3-.15-.45-.23-.15-.08-.29-.18-.43-.28-.14-.1-.27-.2-.4-.32-.13-.11-.25-.23-.36-.35-.11-.12-.22-.25-.33-.39-.1-.14-.2-.28-.28-.42-.09-.15-.17-.3-.24-.45-.07-.15-.13-.31-.19-.47-.05-.16-.1-.32-.14-.49-.04-.17-.07-.33-.09-.5-.02-.17-.03-.34-.04-.51,0-.17,0-.34.02-.51.01-.17.04-.34.07-.5.03-.17.07-.33.12-.49.46-1.51,1.42-2.16,2.73-2.91Z"/>
      <path class="cls-5" d="M61.91,196.58l19.15-.08c3.02,0,6.4-.28,9.37.17,6.68,7.26,13.75,14.17,20.72,21.15,3.73,3.73,7.31,7.62,11.08,11.31,9.52.09,19.06-.14,28.57.02,0,2.53-.17,5.2.12,7.71l-.04,2.31c-10.74.42-21.62.04-32.38.02-10.74-10.74-21.36-21.6-31.84-32.59-8.14-.09-16.3,0-24.45,0l-.18.03c-2.98-.21-6.11-.01-9.11,0-.3-3.29-.17-6.74-.21-10.04h9.2Z"/>
      <path class="cls-5" d="M61.91,196.58l19.15-.08c3.02,0,6.4-.28,9.37.17-9.43.41-19,.09-28.44.09,0,2.94-.53,7.04.23,9.84l-.18.03c-2.98-.21-6.11-.01-9.11,0-.3-3.29-.17-6.74-.21-10.04h9.2Z"/>
      <path class="cls-5" d="M74.3,138.18c1.95,2.43,4.39,4.68,6.17,7.21,7.67,8.66,16.07,16.75,24.25,24.94l26.27,26.59c12.14-.06,24.28-.05,36.42.02v10.37s-39.66-.21-39.66-.21c-14.43-14.22-28.75-28.55-42.96-42.99-5.04-5.2-10.74-10.28-15.38-15.82-2-2.21-3.44-4.31-4.33-7.19,3.09-.94,6.16-1.92,9.23-2.92Z"/>
      <path class="cls-9" d="M292.13,117.74c2.21,1.13,4.44,2.22,6.68,3.27,0,11.51-.23,23.08.14,34.59-6.21,6.54-12.68,12.84-19.03,19.24-4.6,4.64-9.07,9.53-13.99,13.82l-.07,21.6c-2.21,0-4.62-.2-6.8.13l.03-23.9c3.62-4.02,7.73-7.66,11.5-11.53,7.18-7.36,14.23-14.85,21.6-22.02l-.06-35.19Z"/>
      <path class="cls-5" d="M384.1,196.48c3.09-.05,6.18-.15,9.26-.08,0,3.57.19,7.29-.14,10.84-3.17-.04-6.34-.03-9.51.02-7.67.05-15.34.05-23.02,0-2.76,3.57-6.06,6.82-9.21,10.04-7.42,7.59-15.38,14.91-22.19,23.06h-33.26c.01-2.43,0-4.85-.03-7.28,0-1.14-.08-2.23.38-3.3,3.15-.47,6.65-.16,9.84-.16h18.82c5.49-5.78,11.12-11.44,16.66-17.18,5.05-5.22,10.04-10.59,15.31-15.58,9-.31,18.07-.22,27.08-.39Z"/>
      <path class="cls-5" d="M372.73,138.84c3.43,1.07,6.89,2.31,10.36,3.21-2.05,2.75-4.14,5.46-6.28,8.15l-56.03,57.17-42.75.09.03-10.7c12.77-.39,25.67-.02,38.46,0,16.42-16.76,33.1-33.33,49.13-50.48,2.33-2.52,4.69-5,7.09-7.44Z"/>
      <path class="cls-5" d="M207.36,447.32c3.08.52,6.45,1.34,9.57,1.15l.04,12.85c-3.24.07-6.44-.09-9.67-.39l.06-13.61Z"/>
      <path class="cls-5" d="M207.43,362.22c3,3.47,5.99,6.8,9.49,9.79.01,25.48-.31,50.99,0,76.47-3.12.19-6.49-.63-9.57-1.15l.03-56.43c0-9.52-.35-19.17.05-28.67Z"/>
      <path class="cls-9" d="M176.4,332.19l.52-.15c1.58,1.22,3.02,2.74,4.28,4.29l-.1.58c-3.53,2.89-6.68,6.69-9.83,10-5.07,5.3-10.16,10.58-15.28,15.83-.07,7.56-.09,15.11-.08,22.67,3.5,1.6,6.09,3.46,7.57,7.17.07.18.14.37.21.56.06.19.12.38.18.56.05.19.1.38.15.57.04.19.08.39.12.58.03.19.06.39.09.59.02.2.04.39.06.59.01.2.02.39.03.59,0,.2,0,.39,0,.59,0,.2-.02.39-.03.59-.02.2-.04.39-.06.59-.03.2-.06.39-.09.59-.04.19-.08.39-.12.58-.05.19-.1.38-.15.57-.05.19-.11.38-.18.56-.06.19-.13.37-.21.55-.07.18-.15.36-.24.54-.08.18-.17.36-.26.54-.09.18-.19.35-.29.53-.1.17-.21.34-.32.51-.11.17-.22.33-.34.49-.12.16-.24.32-.36.48-.13.16-.26.31-.39.46-.13.15-.27.3-.41.44-.14.14-.28.28-.43.42-.15.14-.3.27-.45.4-.15.13-.31.25-.47.37-.16.12-.32.24-.49.35-.17.11-.33.22-.51.32-.17.1-.34.2-.52.3-.18.1-.35.19-.54.27-.18.09-.36.17-.55.24-.18.08-.37.15-.56.22-.18.06-.37.12-.55.18-.19.06-.37.11-.56.15-.19.05-.38.09-.57.12-.19.04-.38.07-.57.09-.19.03-.39.05-.58.07-.19.02-.39.03-.58.04-.19,0-.39.01-.58,0-.19,0-.39,0-.58-.02-.19-.01-.39-.03-.58-.05-.19-.02-.39-.05-.58-.08-.19-.03-.38-.07-.57-.1-.19-.04-.38-.08-.57-.13-.19-.05-.37-.1-.56-.16-.19-.06-.37-.12-.55-.19-.18-.07-.36-.14-.54-.21-.18-.08-.36-.16-.53-.24-2.65-1.29-4.57-3.59-5.5-6.37-1.09-3.25-1.04-7.52.64-10.55,1.5-2.71,3.99-4.61,6.96-5.41-.05-8.26-.19-16.58.12-24.84,2.08-3.58,6-6.83,8.9-9.79,6.01-6.13,12.22-12.12,18-18.46Z"/>
      <path class="cls-7" d="M152.61,391.52c1.01.1,1.97.24,2.87.75,1.19.67,2.09,1.83,2.39,3.17.34,1.54-.02,3.13-.88,4.44-1.18,1.8-2.62,2.24-4.64,2.63-.87-.16-1.69-.38-2.46-.83-1.34-.78-2.37-2.03-2.69-3.57-.28-1.37.05-2.76.82-3.92,1.12-1.68,2.69-2.27,4.59-2.67Z"/>
      <path class="cls-9" d="M188.9,350.56c1.11.15,2.37.43,3.24,1.19.52.45.84,1.01.81,1.71-.06,1.53-1.3,3-2.33,4.01l-2.16,2.17.11,47.85c1.27.6,2.49,1.3,3.61,2.15.32.24.62.5.92.77.29.27.57.56.84.85.27.3.52.61.75.93.24.32.45.66.66,1,.2.34.39.7.56,1.06s.32.73.45,1.11c.13.38.25.76.34,1.15.1.39.17.78.23,1.17.03.21.05.42.07.63.02.21.03.42.04.64,0,.21,0,.42,0,.64,0,.21-.01.42-.03.64-.01.21-.03.42-.06.63-.03.21-.06.42-.09.63-.04.21-.08.42-.12.62-.05.21-.1.41-.16.62-.06.2-.12.41-.19.61-.07.2-.14.4-.22.6-.08.2-.16.39-.25.59-.09.19-.18.38-.28.57-.1.19-.2.37-.31.56-.11.18-.22.36-.34.54-.12.18-.24.35-.36.52-.13.17-.26.34-.39.5-2.24,2.7-5.29,4.03-8.73,4.31-2.32-.06-4.54-.51-6.58-1.66-.18-.1-.35-.2-.52-.31-.17-.11-.34-.22-.5-.33-.17-.12-.33-.23-.49-.36-.16-.12-.31-.25-.47-.38-.15-.13-.3-.27-.45-.4-.15-.14-.29-.28-.43-.43-.14-.15-.27-.29-.4-.45-.13-.15-.26-.31-.38-.47-.12-.16-.24-.32-.36-.49-.12-.16-.23-.33-.33-.5-.11-.17-.21-.34-.31-.52-.1-.18-.19-.35-.28-.53-.09-.18-.17-.36-.25-.55-.08-.18-.15-.37-.23-.56-.07-.19-.14-.38-.2-.57-.06-.19-.12-.38-.17-.58-.05-.21-.1-.42-.15-.63-.04-.21-.08-.42-.12-.63-.03-.21-.06-.42-.08-.64-.02-.21-.04-.43-.05-.64-.01-.21-.02-.43-.02-.64,0-.21,0-.43.01-.64,0-.21.02-.43.04-.64.02-.21.05-.43.08-.64.03-.21.07-.42.11-.63.04-.21.09-.42.14-.63.05-.21.11-.41.17-.62.06-.21.13-.41.2-.61.07-.2.15-.4.23-.6.08-.2.17-.39.26-.59.09-.19.19-.38.29-.57.1-.19.21-.37.32-.56,1.73-2.85,4.25-4.62,7.45-5.44l-.12-31.2c-.01-6.02-.17-12.09.1-18.11,1.71-2.81,3.95-5.64,6.86-7.24Z"/>
      <path class="cls-4" d="M184.05,413.33c1.03.07,2.18.17,3.12.63,1.56.75,2.83,2.16,3.32,3.83.06.19.1.39.14.58.04.2.07.39.08.59.02.2.03.4.02.6,0,.2-.01.4-.04.6-.02.2-.05.4-.1.59-.04.2-.09.39-.15.58-.06.19-.13.38-.21.56-.08.18-.17.36-.27.54-1.02,1.85-2.42,2.55-4.37,3.12-1.07-.1-2.26-.36-3.21-.88-.19-.11-.38-.23-.56-.36-.18-.13-.36-.27-.53-.41-.17-.15-.33-.3-.48-.46-.15-.16-.3-.33-.43-.51-.14-.18-.26-.36-.38-.55-.12-.19-.22-.38-.32-.58-.1-.2-.18-.41-.26-.61-.08-.21-.14-.42-.2-.64-.38-1.5-.23-3.19.59-4.51,1.01-1.63,2.41-2.34,4.23-2.71Z"/>
      <path class="cls-5" d="M121.96,313.24l36.47-.1c3.27,3.37,6.58,6.7,9.93,9.98h-4.45c-12.18-.24-24.41-.17-36.59-.03-6.39,6.34-12.51,13-18.67,19.56-3.74,3.98-7.8,7.89-11.3,12.07-2.44,2.53-4.79,4.82-7.33,7.25-2.03-3.07-3.68-6.07-5.14-9.27,2.69-2.49,4.91-5.15,7.41-7.83,9.85-10.58,20.06-20.86,29.68-31.64Z"/>
      <path class="cls-9" d="M256.69,350.23c.28,0,.56-.02.85,0,2.15.12,6.02,5.17,7.47,6.83.52,16.06.04,32.73.05,48.85.91.39,1.86.77,2.69,1.31,2.64,1.69,4.48,4.54,5.05,7.61.04.2.07.39.09.59.03.2.05.4.06.59.02.2.03.4.03.6,0,.2,0,.4,0,.6,0,.2-.01.4-.03.6-.01.2-.03.4-.06.59-.02.2-.05.39-.09.59-.03.2-.07.39-.12.59-.04.19-.09.39-.15.58-.05.19-.11.38-.17.57-.06.19-.13.38-.2.56-.07.19-.15.37-.23.55-.08.18-.17.36-.26.54-.09.18-.19.35-.28.52-.1.17-.2.34-.31.51-.11.17-.22.33-.34.49-2.28,3.16-5.26,4.32-8.95,4.95-1.9-.06-3.82-.36-5.56-1.17-2.87-1.34-4.97-3.75-5.97-6.75-1.04-3.14-.85-6.78.78-9.69,1.62-2.91,4.49-4.79,7.65-5.64l-.4-46.15c-1.04-1.04-2.18-2.15-3.07-3.32-.7-.92-1.29-2.11-1-3.3.31-1.29,1.4-1.93,2.45-2.58Z"/>
      <path class="cls-11" d="M260.26,411.76c.78-.03,1.67-.03,2.41.21.16.05.31.11.46.17.15.06.3.14.44.22.14.08.28.17.42.26.14.09.26.19.39.3.12.11.24.22.36.34.11.12.22.24.32.37.1.13.2.26.28.4.09.14.17.28.24.43.61,1.22.59,2.68.13,3.94-.65,1.78-1.92,2.64-3.59,3.36-.55.01-1.1.03-1.65-.07-.16-.03-.33-.06-.49-.11-.16-.04-.32-.1-.47-.16-.15-.06-.3-.13-.45-.21-.15-.08-.29-.16-.43-.26-.14-.09-.27-.19-.4-.3-.13-.11-.25-.22-.36-.34-.11-.12-.22-.25-.32-.38-.1-.13-.19-.27-.28-.41-.75-1.22-.82-2.71-.44-4.06.53-1.92,1.74-2.78,3.42-3.69Z"/>
      <path class="cls-9" d="M268.22,331.85c5.26,5.7,10.66,11.27,16.18,16.72,3.45,3.47,7.79,7.14,10.53,11.16.57,8.38.22,16.95.28,25.36,3.42,1.29,6.16,3.13,7.7,6.59,1.37,3.08,1.27,6.63-.04,9.71-1.29,3.05-3.78,5.61-6.92,6.73-2.73.97-5.64.65-8.2-.63-2.69-1.34-5.17-3.84-6.04-6.77-.94-3.15-.54-6.85,1.13-9.69,1.39-2.36,3.4-3.92,5.79-5.17v-23.48c-8.08-8.94-16.68-17.43-25.27-25.87,1.58-1.59,3.24-3.11,4.86-4.66Z"/>
      <path class="cls-12" d="M291.58,391.8c.68-.03,1.38-.07,2.05.05.17.03.33.07.49.11s.32.1.48.16c.16.06.31.13.46.21.15.08.29.16.43.26.14.09.28.19.41.3.13.11.25.22.37.34.12.12.23.25.34.38.11.13.2.27.3.41.75,1.16.89,2.59.52,3.91-.54,1.91-1.79,2.78-3.46,3.68-.65.03-1.34.07-1.99-.05-1.4-.27-2.69-1.19-3.4-2.42-.7-1.2-.77-2.66-.34-3.97.58-1.75,1.79-2.55,3.35-3.38Z"/>
      <path class="cls-5" d="M286.62,313.22l35.68-.03c10.04,9.8,19.84,19.92,29.55,30.05,3.19,3.36,6.31,6.93,9.73,10.04-1.72,3.18-3.43,6.25-4.99,9.5-3.22-3.6-6.64-6.82-10.06-10.23l-28.49-29.13-41.75.14c3.39-3.49,6.72-7.09,10.34-10.35Z"/>
      <path class="cls-5" d="M346.52,352.56c3.42,3.41,6.84,6.63,10.06,10.23-15.47,25.23-31.06,46.35-53.21,67.76-2.54,2.41-7.95,8.06-10.58,10.35-2.53-2.45-5.15-4.67-7.72-7.08,3.13-3.2,11.32-11.77,14.76-15.59,18.25-19.62,32.18-37.74,40.68-54.04,2.13-3.73,4.45-7.62,6-11.63Z"/>
      <path class="cls-5" d="M216.89,70.54l.06,139.74-9.67-.04c.49-18.53.08-37.18.01-55.72l-.18-67.37c.04-3.26,0-6.53-.02-9.79,3.03-2.47,6.57-4.59,9.79-6.82Z"/>
      <path class="cls-5" d="M229.68,70.48c2.76,2.61,6.32,4.41,9.4,6.62v10.28s.19,83.61.19,83.61c0,13.11.13,26.25-.14,39.36-3.09.04-6.65.34-9.68-.22.51-11.46.05-23.12.05-34.6v-68.9s-.02-22.6-.02-22.6c0-4.48-.22-9.09.19-13.54Z"/>
      <path class="cls-9" d="M258.1,99.71l6.93,3.99-.05,25.48.55.22c3.5,1.41,5.81,3.57,7.26,7.06,1.26,3.05,1.31,6.44,0,9.48-.08.18-.16.36-.25.53-.09.18-.18.35-.27.52-.1.17-.19.34-.3.5-.1.17-.21.33-.32.49-.11.16-.23.32-.35.47-.12.15-.24.31-.37.45-.13.15-.26.29-.39.43-.13.14-.27.28-.41.41-.14.13-.29.27-.43.39-.15.13-.3.25-.45.37-.15.12-.31.24-.47.35-.16.11-.32.22-.49.32-.16.1-.33.2-.5.3-.17.1-.34.19-.52.27-.17.09-.35.17-.53.25-.18.08-.36.15-.54.22-.2.08-.41.15-.62.21-.21.07-.42.13-.63.18-.21.06-.42.11-.63.15-.21.05-.43.09-.64.12-.21.04-.43.07-.65.09-.22.02-.43.04-.65.06-.22.01-.44.02-.65.03-.22,0-.44,0-.65,0-.22,0-.44-.02-.65-.04-.22-.02-.43-.04-.65-.07-.22-.03-.43-.06-.65-.1-.21-.04-.43-.08-.64-.13-.21-.05-.42-.1-.63-.16-.21-.06-.42-.12-.62-.19-.21-.07-.41-.14-.61-.22-.2-.08-.4-.16-.6-.25-2.76-1.28-4.85-3.52-5.88-6.39-1.12-3.13-1-7,.45-10,1.61-3.35,4.41-5.3,7.8-6.55-.41-9.73-.24-19.53-.27-29.26Z"/>
      <path class="cls-1" d="M259.92,135.6c.77-.04,1.55-.06,2.32.05,1.51.23,2.94,1.19,3.78,2.45.84,1.26,1.05,2.81.67,4.26-.53,2.01-1.76,2.92-3.5,3.9-1.07.08-2.21.19-3.27-.09-1.37-.35-2.61-1.39-3.24-2.64-.08-.15-.15-.31-.21-.48-.06-.16-.12-.33-.16-.49-.05-.17-.08-.34-.11-.51-.03-.17-.05-.34-.06-.51-.01-.17-.02-.35-.01-.52,0-.17.02-.35.04-.52.02-.17.05-.34.08-.51.04-.17.08-.34.13-.5.64-1.95,1.81-2.95,3.55-3.9Z"/>
      <path class="cls-9" d="M189.48,98.76l-.04,30.63c2.65.59,4.74,1.93,6.23,4.24,1.87,2.88,2.55,6.78,1.81,10.13-.04.19-.09.38-.14.57-.05.19-.11.38-.17.56-.06.19-.13.37-.2.55-.07.18-.15.36-.23.54-.08.18-.16.36-.25.53-.09.17-.18.35-.28.52-.1.17-.2.34-.31.5-.11.16-.22.33-.33.48-.12.16-.23.31-.36.47-.12.15-.25.3-.38.45-.13.15-.26.29-.4.43-.14.14-.28.27-.42.41-.14.13-.29.26-.44.38-.15.12-.31.24-.46.36-.16.12-.32.23-.48.34-.16.11-.33.21-.5.31-2.92,1.72-6.72,2.04-9.96,1.13-3.09-.87-5.65-2.88-7.11-5.75-.1-.19-.19-.38-.28-.57-.09-.19-.17-.39-.25-.59-.08-.2-.15-.4-.21-.6-.07-.2-.13-.4-.18-.61-.06-.2-.11-.41-.15-.62-.05-.21-.09-.41-.12-.62-.03-.21-.06-.42-.09-.63-.02-.21-.04-.42-.06-.63-.01-.21-.02-.42-.02-.63,0-.21,0-.42.01-.63,0-.21.02-.42.04-.63.02-.21.04-.42.08-.63.03-.21.07-.42.11-.63.04-.21.09-.41.14-.62.05-.21.11-.41.17-.61s.13-.4.2-.6c1.12-3.13,3.59-5.88,6.65-7.19.5-.21,1.01-.4,1.52-.57-.02-8.69.12-17.42-.11-26.1,2.3-1.4,4.65-2.71,6.97-4.07Z"/>
      <path class="cls-12" d="M183.79,135.61c1.04-.09,2.23-.19,3.24.03,1.26.28,2.53,1.25,3.22,2.33.09.14.17.28.25.43.08.15.14.3.2.45.06.15.11.31.16.47.04.16.08.32.11.48.03.16.05.33.06.49.01.17.02.33.01.5,0,.17-.02.33-.04.5-.02.16-.05.33-.09.49-.47,2.05-1.68,3.11-3.4,4.18-.89.1-1.81.18-2.69,0-1.56-.3-2.99-1.32-3.81-2.68-.7-1.16-.93-2.63-.58-3.94.51-1.91,1.65-2.84,3.33-3.74Z"/>
      <path class="cls-9" d="M149.13,119.24c2.36-.89,4.61-1.93,6.88-3.04l-.04,36.82,17.96,18c4.96,4.93,10.06,9.76,14.9,14.8v24.47s-6.03,0-6.03,0l-.5-.46c-.71-3.91-.1-15.59-.08-20.46l-33.03-33.3-.06-36.83Z"/>
      <g>
        <path class="cls-8" d="M177.64,285.91v-10.08h25.76c3.61,0,5.23-2.15,5.23-6.32v-30.65h9.77v31.76c0,10.22-4.05,15.29-12.88,15.29h-27.88Z"/>
        <path class="cls-8" d="M205.52,289.03h-31v-16.31h28.88c1.18,0,2.11,0,2.11-3.21v-33.76h16v34.88c0,5.95-1.26,10.35-3.85,13.47-2.72,3.28-6.81,4.94-12.15,4.94ZM180.75,282.79h24.76c8.58,0,9.76-5.85,9.76-12.17v-28.64h-3.54v27.53c0,8.52-5.84,9.44-8.34,9.44h-22.65v3.84Z"/>
      </g>
      <text/>
      <g>
        <path class="cls-8" d="M241.41,285.91c-8.84,0-12.88-5.07-12.88-15.29v-31.76h9.77v30.65c0,4.17,1.62,6.32,5.23,6.32h25.76v10.08h-27.88Z"/>
        <path class="cls-8" d="M272.4,289.03h-31c-5.34,0-9.43-1.66-12.15-4.94-2.59-3.11-3.85-7.52-3.85-13.47v-34.88h16v33.76c0,3.21.93,3.21,2.11,3.21h28.88v16.31ZM231.64,241.98v28.64c0,10.7,4.69,12.17,9.76,12.17h24.76v-3.84h-22.65c-2.51,0-8.34-.92-8.34-9.44v-27.53h-3.54Z"/>
      </g>
      <path class="cls-5" d="M207.1,320.38c-4.13,0-5.64-1.94-5.64-5.5v-3.3c0-3.56,1.51-5.5,5.64-5.5h20.62v-1.54c0-2.23-.97-3.3-3.02-3.3h-22.63v-5.17h23.85c5.07,0,7.4,2.62,7.4,7.9v16.42h-26.22ZM227.72,310.14h-18.57c-1.51,0-2.08.75-2.08,2.12v1.22c0,1.44.57,2.19,2.08,2.19h18.57v-5.53ZM237.02,320.38v-24.32h5.64v24.32h-5.64Z"/>
    </g>
  </g>
</svg>