<?xml version="1.0" encoding="UTF-8"?>
<svg id="Layer_2" data-name="Layer 2" xmlns="http://www.w3.org/2000/svg" xmlns:xlink="http://www.w3.org/1999/xlink" viewBox="0 0 1645.7 1338.64">
  <defs>
    <style>
      .cls-1 {
        fill: #000e72;
      }

      .cls-2 {
        fill: url(#linear-gradient-2);
      }

      .cls-3 {
        fill: #1a5356;
      }

      .cls-4 {
        fill: #fdfefd;
      }

      .cls-5 {
        fill: #ffca3a;
      }

      .cls-6 {
        fill: url(#linear-gradient);
        stroke-width: 10px;
      }

      .cls-6, .cls-7 {
        stroke: #fff;
        stroke-miterlimit: 10;
      }

      .cls-8, .cls-7 {
        fill: #fff;
      }

      .cls-9 {
        fill: #c3fbea;
      }

      .cls-10 {
        fill: #099f8a;
      }

      .cls-11 {
        fill: #f72585;
      }

      .cls-7 {
        stroke-width: 6px;
      }

      .cls-12 {
        fill: #45dcff;
      }

      .cls-13 {
        fill: #221e6e;
      }
    </style>
    <linearGradient id="linear-gradient" x1="347.46" y1="570.15" x2="1256.42" y2="570.15" gradientUnits="userSpaceOnUse">
      <stop offset="0" stop-color="#000e72"/>
      <stop offset="1" stop-color="#099f8a"/>
    </linearGradient>
    <linearGradient id="linear-gradient-2" x1="425.7" y1="567.95" x2="1175.63" y2="567.95" xlink:href="#linear-gradient"/>
  </defs>
  <g id="Layer_1-2" data-name="Layer 1">
    <g>
      <path class="cls-8" d="M0,1338.64v-19.07h54.45c7.63,0,11.05-4.08,11.05-11.97v-58h20.65v60.1c0,19.33-8.55,28.93-27.22,28.93H0ZM126.38,1338.64c-18.41,0-27.22-9.73-27.22-28.93v-60.1h20.91v58c0,7.89,3.55,11.97,10.78,11.97h61.55v-69.97h20.38v89.04h-86.41ZM320.62,1338.64v-58c0-8.02-3.55-12.1-10.92-12.1h-62.21v70.1h-20.65v-89.04h87.19c18.54,0,27.22,9.73,27.22,28.93v60.1h-20.65ZM354.81,1338.64v-89.04h20.65v89.04h-20.65ZM415.57,1338.64c-18.67,0-27.36-9.6-27.36-28.93v-31.17c0-19.33,8.68-28.93,27.36-28.93h62.21c18.67,0,27.22,9.6,27.22,28.93v31.17c0,19.33-8.55,28.93-27.22,28.93h-62.21ZM484.35,1280.64c0-8.15-3.42-12.1-11.05-12.1h-53.26c-7.63,0-11.05,3.95-11.05,12.1v26.96c0,7.89,3.42,11.97,11.05,11.97h53.26c7.63,0,11.05-4.08,11.05-11.97v-26.96ZM617.18,1338.64c-1.45-1.05-2.24-2.63-2.24-5.79v-16.57c0-5.79-3.68-8.02-9.34-8.02h-66.94v30.38h-20.65v-89.04h95.48c15.12,0,20.65,7.1,20.65,20.12v11.44c0,14.73-7.23,16.97-12.63,17.75,5.52.53,13.94,3.42,13.94,17.1v16.83c0,3.16.92,4.73,2.37,5.79h-20.65ZM613.62,1274.59c0-5.13-2.1-7.76-7.63-7.76h-67.34v24.99h66.42c5.13,0,8.55-1.97,8.55-7.76v-9.47Z"/>
      <path class="cls-8" d="M715.54,1338.64c-15.12,0-20.65-7.1-20.65-20.12v-12.1c0-13.02,5.52-20.12,20.65-20.12h75.49v-5.66c0-8.15-3.55-12.1-11.05-12.1h-82.86v-18.94h87.33c18.54,0,27.09,9.6,27.09,28.93v60.1h-96.01ZM791.03,1301.16h-67.99c-5.52,0-7.63,2.76-7.63,7.76v4.47c0,5.26,2.1,8.02,7.63,8.02h67.99v-20.25ZM825.09,1338.64v-89.04h20.65v89.04h-20.65Z"/>
      <path class="cls-8" d="M934.5,1338.64c-18.54,0-27.22-9.6-27.22-28.93v-60.1h20.65v58c0,7.89,3.55,11.97,10.92,11.97h66.55v19.07h-70.89ZM1041.42,1338.64c-18.67,0-27.36-9.6-27.36-28.93v-39.98c0-13.02,5.66-20.12,20.91-20.12h75.23c15.26,0,20.65,7.1,20.65,20.12v12.49c0,13.02-5.39,20.12-20.65,20.12h-75.36v5.26c0,7.89,3.42,11.97,11.05,11.97h82.72v19.07h-87.19ZM1110.33,1274.59c0-5.13-2.1-7.76-7.63-7.76h-60.23c-5.52,0-7.63,2.63-7.63,7.76v12.76h67.86c5.52,0,7.63-2.89,7.63-7.89v-4.87ZM1164.51,1338.64c-15.12,0-20.65-7.1-20.65-20.12v-12.1c0-13.02,5.52-20.12,20.65-20.12h75.49v-5.66c0-8.15-3.55-12.1-11.05-12.1h-82.86v-18.94h87.33c18.54,0,27.09,9.6,27.09,28.93v60.1h-96.01ZM1240,1301.16h-67.99c-5.52,0-7.63,2.76-7.63,7.76v4.47c0,5.26,2.1,8.02,7.63,8.02h67.99v-20.25ZM1293.91,1338.64c-15.26,0-20.91-7.1-20.91-23.54v-36.56c0-19.33,8.68-28.93,27.36-28.93h86.41v18.94h-81.93c-7.63,0-11.05,3.95-11.05,12.1v31.7c0,6.18,2.1,9.07,7.63,9.07h66.94v-31.3h20.52v48.53h-94.95ZM1429.5,1338.64c-18.41,0-27.22-9.73-27.22-28.93v-60.1h20.91v58c0,7.89,3.55,11.97,10.78,11.97h61.55v-69.97h20.38v89.04h-86.41ZM1556.27,1338.64c-18.67,0-27.36-9.6-27.36-28.93v-39.98c0-13.02,5.66-20.12,20.91-20.12h75.23c15.26,0,20.65,7.1,20.65,20.12v12.49c0,13.02-5.39,20.12-20.65,20.12h-75.36v5.26c0,7.89,3.42,11.97,11.05,11.97h82.72v19.07h-87.19ZM1625.19,1274.59c0-5.13-2.1-7.76-7.63-7.76h-60.23c-5.52,0-7.63,2.63-7.63,7.76v12.76h67.86c5.52,0,7.63-2.89,7.63-7.89v-4.87Z"/>
    </g>
    <g>
      <path class="cls-6" d="M802.01,6.05c11.31,7.66,21.95,16.33,32.94,24.43,14.15,10.39,28.64,20.29,43.45,29.7,11.09,7.04,22.3,13.87,33.64,20.48,11.34,6.62,22.8,13.02,34.38,19.22,11.58,6.19,23.27,12.16,35.08,17.92,11.8,5.75,23.71,11.29,35.72,16.6,12.01,5.31,24.11,10.39,36.31,15.25,12.2,4.86,24.49,9.49,36.86,13.89,12.37,4.4,24.82,8.57,37.35,12.5,12.53,3.94,25.13,7.64,37.79,11.1,29.93,8.37,60.14,14.97,90.42,21.88.7,15.53-.1,31.38-.12,46.94l.18,81.45c-.1,38.04.98,76.12-.03,114.16-1.58,59.35-8.31,120.59-23.91,177.99-35.15,129.31-90.54,229.7-184.48,325.4-10.79,10.96-21.85,21.64-33.19,32.03-11.34,10.4-22.93,20.49-34.79,30.29-11.85,9.8-23.95,19.29-36.29,28.48-12.34,9.18-24.9,18.04-37.7,26.58-33.28,22.42-68.31,41.96-103.1,61.89-.04,0-.08.02-.12.02-3.56.07-23.68-12.12-28.2-14.68-76.84-43.54-148.81-95.1-211.35-157.64-120.73-120.72-196.68-267.76-212.33-439.07-4.04-44.25-2.94-88.73-2.92-133.11v-180.99c8.12-1.51,16.22-3.12,24.29-4.82,8.08-1.7,16.13-3.49,24.17-5.38,8.04-1.89,16.05-3.86,24.04-5.93,7.99-2.07,15.96-4.23,23.9-6.48,7.94-2.25,15.85-4.6,23.74-7.03,7.89-2.43,15.74-4.96,23.57-7.58,7.83-2.62,15.63-5.32,23.39-8.12,7.77-2.8,15.5-5.68,23.2-8.66,7.7-2.97,15.36-6.04,22.99-9.19,7.63-3.15,15.22-6.39,22.77-9.72,7.55-3.33,15.07-6.74,22.55-10.24,7.48-3.5,14.91-7.09,22.3-10.76,7.39-3.67,14.74-7.43,22.05-11.27,7.31-3.84,14.57-7.76,21.78-11.77,7.22-4.01,14.39-8.1,21.51-12.27,7.12-4.17,14.19-8.43,21.22-12.76,19.42-12.17,38.5-25.36,57.06-38.81,9.99-7.25,19.66-14.98,29.86-21.94Z"/>
      <g>
        <path class="cls-10" d="M803.5,52.83c27.56,24.57,57.75,45.85,88.71,65.87,8.55,5.44,17.22,10.7,25.99,15.78,3.74,2.2,8.89,4.47,12.06,7.3,21.91,11.27,43.35,23.3,65.64,33.85,21,9.76,42.26,18.9,63.79,27.42,21.53,8.52,43.29,16.42,65.27,23.68,19.1,6.46,38.6,12.33,57.99,17.84,10.03,2.85,20.52,5.1,30.34,8.56.11,18.19.66,37.11.66,55.15,0,16.77,0,33.18.07,49.59.17,38.86.69,79.08-1.95,117.82-5.04,73.75-19.84,153.25-46.18,222.62-39.4,103.75-106.91,195.88-189.2,269.75-41.72,37.45-87.19,68.99-135.26,97.71-12.3,7.35-25.56,16.26-38.83,21.68-8.64-6.11-19.07-10.66-28.33-15.91-16.87-9.61-33.37-19.83-49.49-30.65-9.02-6.08-17.92-12.34-26.7-18.76-8.78-6.43-17.43-13.02-25.96-19.78-8.52-6.76-16.91-13.68-25.17-20.77-8.26-7.09-16.37-14.33-24.35-21.73-7.98-7.4-15.81-14.95-23.49-22.65-7.68-7.7-15.21-15.55-22.59-23.55-7.38-7.99-14.6-16.13-21.67-24.4-7.06-8.27-13.97-16.68-20.71-25.22-12.86-16.41-23.62-34.12-36.02-50.8-13.6-21.15-26.31-42.17-37.48-64.76-78.1-157.93-74.18-325.16-72.39-496.43,30.04-7.95,60.28-17.68,89.62-27.92,15.59-5.44,31.01-11.9,46.79-16.7,31.73-13.46,63.63-25.86,94.89-40.48,12.93-6.14,25.73-12.56,38.37-19.27,12.65-6.71,25.14-13.69,37.48-20.96,12.34-7.26,24.51-14.8,36.51-22.61,12-7.81,23.82-15.88,35.46-24.21,12.13-8.69,24.64-17.51,36.1-27.07Z"/>
        <path class="cls-1" d="M1214.1,357.88c-.07-16.41-.07-32.82-.07-49.59,0-18.04-.56-36.96-.66-55.15-9.83-3.46-20.31-5.71-30.34-8.56-19.4-5.51-38.89-11.38-57.99-17.84-21.99-7.26-43.74-15.15-65.27-23.68-21.53-8.52-42.79-17.66-63.79-27.42-22.29-10.55-43.73-22.58-65.64-33.85-3.18-2.83-8.33-5.1-12.06-7.3-8.77-5.08-17.44-10.34-25.99-15.78-30.97-20.03-61.16-41.3-88.71-65.87-.86.72-1.73,1.42-2.6,2.13v1031.35c.58.39,1.17.76,1.73,1.16,13.27-5.42,26.53-14.33,38.83-21.68,48.06-28.72,93.54-60.26,135.26-97.71,82.29-73.87,149.8-165.99,189.2-269.75,26.34-69.37,41.14-148.87,46.18-222.62,2.65-38.74,2.12-78.96,1.95-117.82Z"/>
      </g>
      <path class="cls-13" d="M1054.62,202.67c1.78.1,3.4.36,5.05,1.06,3.03,1.29,5.47,3.37,6.64,6.5,1.1,2.95.81,6.17-.59,8.97-2,3.99-5.29,5.81-9.4,7.04-2.17-.06-4.13-.32-6.14-1.21-2.73-1.21-4.87-3.35-5.9-6.16-1.05-2.83-.8-5.96.47-8.68,2.04-4.37,5.49-6.04,9.86-7.52Z"/>
      <path class="cls-2" d="M803.02,98.61c25,22.29,52.39,41.6,80.49,59.76,7.76,4.94,15.62,9.71,23.58,14.32,3.39,2,8.06,4.06,10.94,6.62,19.88,10.22,39.33,21.14,59.55,30.71,19.05,8.85,38.34,17.14,57.87,24.88,19.53,7.73,39.27,14.89,59.22,21.48,17.33,5.86,35.02,11.19,52.62,16.19,9.1,2.59,18.62,4.63,27.53,7.77.1,16.5.6,33.67.6,50.03,0,15.21,0,30.1.06,44.99.15,35.26.63,71.74-1.77,106.89-4.57,66.91-18,139.04-41.89,201.97-35.74,94.13-96.99,177.72-171.65,244.73-37.85,33.98-79.11,62.6-122.71,88.65-11.16,6.67-23.19,14.76-35.23,19.67-7.84-5.54-17.31-9.67-25.7-14.43-15.3-8.72-30.27-17.99-44.9-27.81-8.18-5.52-16.26-11.19-24.23-17.02-7.97-5.83-15.82-11.81-23.55-17.95-7.73-6.13-15.35-12.42-22.84-18.84-7.49-6.43-14.85-13-22.09-19.71-7.24-6.71-14.34-13.56-21.31-20.55-6.97-6.99-13.8-14.11-20.5-21.36-6.69-7.25-13.25-14.63-19.66-22.14-6.41-7.51-12.67-15.14-18.78-22.89-11.66-14.89-21.43-30.96-32.68-46.09-12.34-19.19-23.87-38.26-34.01-58.75-70.85-143.29-67.3-295-65.68-450.39,27.25-7.21,54.69-16.04,81.31-25.33,14.14-4.93,28.14-10.8,42.45-15.15,28.79-12.21,57.73-23.46,86.09-36.73,11.74-5.57,23.34-11.39,34.82-17.48,11.47-6.09,22.81-12.42,34-19.02,11.19-6.59,22.23-13.43,33.12-20.51,10.89-7.08,21.61-14.4,32.17-21.97,11.01-7.88,22.36-15.88,32.75-24.56Z"/>
      <path class="cls-4" d="M1134.74,288.9c6.84,2.61,13.85,4.65,20.86,6.75l.54,106.48c-6.43-.15-12.87.05-19.29.16-.11-30.99,0-61.97.34-92.96-5.23-.67-10.41-2.19-15.52-3.45,4.45-5.59,8.8-11.25,13.08-16.98Z"/>
      <path class="cls-4" d="M470.92,614.52h22.14c1.6,18.24,25.5,80.01,35.83,96.93-5.2,5.58-9.83,11.13-15.43,16.31-4.34-10.56-10.08-20.55-14.47-31.1-5.57-13.37-10.7-26.91-15.38-40.61-4.68-13.71-8.91-27.55-12.69-41.53Z"/>
      <path class="cls-4" d="M445.4,294.6c8.88-2.55,17.76-5.77,26.8-7.68,1.86,6,4.85,10.39,9.02,14.99-5.34,1.77-10.66,3.2-16.13,4.5-.62,23.56-.74,47.11-.33,70.67.2,8.42.13,17.05.87,25.43l-19.18.02c-1.11-12.25-.68-24.88-.8-37.19-.23-23.58-.31-47.15-.25-70.73Z"/>
      <path class="cls-4" d="M1133.53,614.47c-3.17,10.52-5.89,21.15-9.27,31.61-4.49,13.88-28.33,72.69-34.32,82.9-7.13-6.49-13.63-13.92-20.27-20.92,11.36-19.82,33.99-70.57,38.71-93.62l25.16.03Z"/>
      <path class="cls-4" d="M446.9,423.44c6.24-.03,12.77-.43,18.98,0-.39,27.43,1.76,55.93,4.9,83.15.91,7.89,1.54,16.16,3.16,23.93l2.07,13.03c2.39,16.88,6.26,34.05,10.62,50.53,1.04,3.69-1.67,7.61,6.9,8.01-15.62.3-12.29-7.58-27.92-7.6-2.83-18.36-7.18-36.48-9.84-54.91-5.56-38.69-7.81-77.11-8.88-116.14Z"/>
      <path class="cls-4" d="M834.58,745.77c.07,12.71.03,25.43-.14,38.14-.82,16.97-.3,34.16-.3,51.17l-.09,91.26c-6.78,1.28-13.74,2.29-20.62,2.84.48-53.87-1.22-107.94.4-161.78,7.5-6.77,14.17-13.99,20.75-21.62Z"/>
      <path class="cls-4" d="M1122.54,544.12c1.47-3.62,2.07-8.86,2.45-12.66.58-11.6,3.87-23.35,5.37-34.91,3.04-23.84,4.94-47.77,5.69-71.8,6.6-.11,13.21-.12,19.81-.05-1.35,28.01-1.2,55.95-4.18,83.9-3.03,28.51-9.17,56.34-13.49,84.62l-25.51-.06"/>
      <path class="cls-4" d="M833.98,926.21l.09-91.26c0-17-.52-34.2.3-51.17l.07,167.53.09,14.21c30.66-14.59,71.79-44.94,95.96-68.91,5.36,5.03,10.89,9.74,16.18,14.84l-.64.45c-9.03,7.31-18.54,15-27.98,22.23-12.08,9.4-24.46,18.38-37.15,26.93-12.69,8.55-25.67,16.65-38.92,24.31-9.29,5.3-18.88,10.82-28.77,14.92.01-15.83-.13-31.68.05-47.51l.11-23.73c6.88-.55,13.84-1.56,20.62-2.84Z"/>
      <path class="cls-4" d="M768.09,154.13c.02,6.79.12,13.6.03,20.39-11.62,9.23-24.59,15.81-36.72,24.19-4.84,2.82-9.74,5.56-14.53,8.47-18.25,9.58-36.65,18.86-55.2,27.85-4.73,2.31-9.42,4.48-14.34,6.34-12.39,4.91-24.48,10.52-36.78,15.64-16.06,6.51-32.22,12.77-48.47,18.78-19.06,7.09-39.07,12.24-57.8,20.07-3.7-5.27-8.79-9.95-12.85-15.02,18.76-5.88,37.74-12.06,56.02-19.33,7.66-1.17,20.6-7.58,28.27-10.54,24.94-9.49,49.48-19.91,73.62-31.27,24.14-11.36,47.82-23.62,71.03-36.78,15.26-8.66,30.9-17.36,45.19-27.55l2.54-1.24Z"/>
      <path class="cls-12" d="M929.06,476.9c-.85,30.65-.37,61.42-.36,92.08,0,14.15.64,28.61-.36,42.72-.23,3.3-4.31,7.73-6.49,10.16-7.06,7.88-14.98,15.17-22.35,22.77l-59.83,60.83c-7.75,7.75-15.4,15.59-22.94,23.54-4.74,4.96-9.53,10.69-14.9,14.94-.45.36-1.07.98-1.64.96.65-9.56-1.38-19.59.27-29.09,1.28-.31,2.25-.87,3.24-1.71,13.12-11.08,25.13-24.07,37.17-36.3l38.15-38.23c9.42-9.57,23.68-21.7,31.17-32.18,1.28-13.78.32-28.41.34-42.3-.09-29.41.03-58.82.34-88.23l18.21.05Z"/>
      <path class="cls-4" d="M834.73,153.59c22.2,14.05,44.37,28.24,67.34,41.03,43.46,24.2,88.72,44.06,135.11,61.86,24.71,9.48,50.32,19.15,75.98,25.72-5,5.1-9.93,10.27-14.77,15.51-23.71-7.38-47.17-15.46-70.4-24.24-23.23-8.78-46.17-18.25-68.83-28.4-4.68-2.19-9.32-4.46-13.92-6.81-5.72-3.96-13.53-6.95-19.85-10.13-12.29-6.21-24.49-12.58-36.61-19.13l-14.44-8.31c-13.33-8.31-26.86-16.46-39.59-25.67l-.02-21.43Z"/>
      <path class="cls-4" d="M524.16,747.08c5.29-5.06,10.18-9.85,15.27-15.11,6.4,11.6,13.21,22.95,20.43,34.05,7.22,11.1,14.84,21.93,22.84,32.48,53.14,71.42,109.87,119.15,185.63,165.35l.17-10.61c6.72.62,13.39.97,20.14.81-.06,15.05.02,30.1.26,45.15-13.66-5.98-26.96-14.28-39.69-22.02-4.26-2.61-8.48-5.26-12.68-7.96-4.2-2.7-8.36-5.45-12.5-8.25-4.13-2.8-8.24-5.64-12.3-8.54-4.07-2.89-8.1-5.83-12.11-8.82-4-2.98-7.97-6.01-11.9-9.09-3.93-3.08-7.83-6.19-11.69-9.36-3.86-3.16-7.68-6.37-11.47-9.63-3.79-3.25-7.54-6.55-11.25-9.88-3.71-3.34-7.39-6.72-11.02-10.14-3.64-3.42-7.23-6.88-10.79-10.39-3.56-3.5-7.07-7.05-10.55-10.63-3.48-3.58-6.91-7.21-10.3-10.87-3.39-3.66-6.74-7.36-10.05-11.1-3.31-3.74-6.57-7.52-9.79-11.33-3.22-3.81-6.4-7.66-9.53-11.55-3.13-3.89-6.22-7.81-9.26-11.76-10.96-14.22-21.35-28.84-31.17-43.86-5.18-7.99-11.49-18.16-15.91-25.77-.25-.31-.53-.87-.79-1.17Z"/>
      <path class="cls-4" d="M953.29,599.23c.03-2.02-.22-4.32.89-6.01,6.19-.59,12.59-.22,18.82-.2l31.99.02,105.44.12,27.74.07c-1.5,7.1-3.05,14.18-4.66,21.25l-29.2-.03-100.97-.05h-32.74c-4.66,0-9.49.36-14.12.06-1.74-.11-2.14.05-3.4-1.14.32-4.72.31-9.36.19-14.09Z"/>
      <path class="cls-9" d="M674.43,455.65c37.15-1.09,74.55-.33,111.73-.31,47.65.03,95.35-.43,142.99.19l-.09,21.37-18.21-.05c-36.57.03-73.38.85-109.92-.41l-105.8-.07c.37,32.44-.72,64.95-.11,97.37l.36,34.25c5.67,8.57,14.49,16.12,21.75,23.44l40.3,40.3c8.54,8.46,17,17,25.38,25.62,5.72,5.91,11.25,12.13,17.31,17.69l.33.77c-1.65,9.5.38,19.53-.27,29.09-34.6-35.76-69.65-71.08-105.13-105.96-7.32-7.31-16.19-15.42-19.36-25.62-3.11-9.99-1.34-55.19-1.29-69.13l.04-88.53Z"/>
      <path class="cls-4" d="M512.49,594.08l138.17-.28c-.1,6.46-.43,13.06.18,19.5-3.53,1.98-141.28,1.1-157.79,1.23h-22.14c-2.45-6.33-3.78-13.43-5.3-20.04,15.63.03,31.25-.11,46.88-.41Z"/>
      <path class="cls-9" d="M1034.37,530.88c.33-1,.69-1.98,1.08-2.95,2.42-5.95,6.92-10.77,12.92-13.19,6.65-2.69,14.73-2.27,21.2.73,7.38,3.43,10.99,8.99,13.59,16.36,13.94-.4,27.88-.52,41.82-.37-.38,3.8-.86,8.92-2.45,12.66l-39.6-.1c-.54,1.64-1.09,3.29-1.82,4.86-2.77,6.04-7.7,10.71-14,12.92-6.77,2.38-14.57,1.62-20.87-1.74-6.71-3.57-10.02-8.99-12.28-15.97-26.84.13-53.68.11-80.52-.04l-.06-.3.04-13.19c26.98.32,53.96.42,80.95.31Z"/>
      <path class="cls-5" d="M1056.79,526.11c1.93-.01,3.79,0,5.63.64.38.13.76.28,1.12.45.37.17.72.36,1.07.57.35.21.68.43,1,.67.32.24.63.5.93.77.3.27.58.56.85.86.27.3.52.62.75.95.23.33.45.67.65,1.02.2.35.38.71.54,1.08.16.36.3.73.42,1.11.12.38.22.76.3,1.15.08.39.14.78.17,1.17.04.39.05.79.05,1.19,0,.4-.03.79-.08,1.18-.05.39-.11.78-.2,1.17-.09.39-.19.77-.32,1.14-.13.37-.28.74-.44,1.1-1.68,3.63-4.68,5.46-8.32,6.74-1.83.05-3.69,0-5.45-.56-2.77-.89-5.34-2.98-6.67-5.57-1.39-2.69-1.53-5.78-.56-8.62,1.48-4.33,4.58-6.4,8.57-8.22Z"/>
      <path class="cls-10" d="M695.13,476.37l105.8.07c-.04,6.09.11,12.25-.19,18.33-.17,7.3-.22,14.59-.15,21.89l-.12,77.67v82.5c0,11.79,1.19,26.86-.35,38.21-6.06-5.55-11.59-11.77-17.31-17.69-8.38-8.62-16.84-17.16-25.38-25.62l-40.3-40.3c-7.25-7.32-16.08-14.87-21.75-23.44l-.36-34.25c-.6-32.42.48-64.93.11-97.37Z"/>
      <path class="cls-1" d="M800.93,476.44c36.54,1.26,73.36.44,109.92.41-.31,29.41-.43,58.82-.34,88.23-.01,13.89.94,28.52-.34,42.3-7.49,10.48-21.75,22.61-31.17,32.18l-38.15,38.23c-12.03,12.24-24.05,25.23-37.17,36.3-1,.84-1.97,1.41-3.24,1.71l-.33-.77c1.54-11.35.35-26.42.35-38.21v-82.5s.12-77.67.12-77.67c-.07-7.3-.02-14.59.15-21.89.3-6.08.14-12.24.19-18.33Z"/>
      <path class="cls-9" d="M522.43,531c3.3-6.5,8.05-11.54,15.22-13.74.35-.11.69-.21,1.04-.3.35-.09.7-.17,1.06-.25.36-.07.71-.14,1.07-.19.36-.05.72-.1,1.08-.13.36-.04.72-.06,1.08-.08.36-.02.72-.02,1.09-.02.36,0,.72.01,1.09.03.36.02.72.05,1.08.09.36.04.72.09,1.08.14.36.06.71.12,1.07.2.35.08.71.16,1.06.25.35.09.7.19,1.04.31.34.11.69.23,1.03.36.34.13.67.27,1.01.41.33.15.66.3.98.46.32.16.64.33.96.51,4.86,2.76,8.18,6.99,10.54,11.98l85.52-.15c-.03,4.23-.27,8.58.02,12.79l-84.8.08c-.4,1-.82,2-1.26,2.98-2.65,5.93-7.32,10.6-13.5,12.78-5.67,2-12.27,1.83-17.68-.87-6.46-3.21-9.56-8.69-11.92-15.19l-45.37.1-2.07-13.03c16.16.47,32.32.62,48.48.47Z"/>
      <path class="cls-11" d="M539.8,529.3c1.59-.12,3.22-.23,4.81-.03,2.9.36,5.86,2.17,7.57,4.53,1.47,2.01,1.97,4.4,1.41,6.83-.8,3.49-3.45,5.46-6.27,7.34-1.82.36-3.67.79-5.52.37-.34-.08-.68-.17-1.02-.29-.33-.11-.66-.24-.98-.39-.32-.15-.64-.31-.94-.48-.3-.18-.6-.37-.89-.57-.29-.21-.56-.43-.83-.66-.26-.23-.52-.48-.76-.74-.24-.26-.46-.53-.68-.81-.21-.28-.41-.57-.59-.87-.18-.3-.35-.62-.49-.94-.15-.32-.28-.65-.39-.98-.11-.33-.21-.67-.29-1.02-.08-.34-.14-.69-.19-1.04-.04-.35-.07-.7-.08-1.06,0-.35,0-.71.03-1.06.03-.35.08-.7.14-1.05.07-.35.15-.69.25-1.03.95-3.14,2.96-4.5,5.7-6.05Z"/>
      <path class="cls-4" d="M465.62,402.5l39.9-.17c6.28,0,13.34-.59,19.51.36,13.91,15.13,28.64,29.52,43.16,44.07,7.77,7.78,15.23,15.88,23.09,23.56,19.83.19,39.7-.3,59.52.03,0,5.28-.35,10.83.26,16.07l-.08,4.81c-22.38.87-45.05.09-67.46.04-22.38-22.37-44.49-44.99-66.33-67.89-16.97-.18-33.96,0-50.93,0l-.38.06c-6.21-.43-12.74-.03-18.98,0-.62-6.85-.35-14.04-.45-20.92l19.18-.02Z"/>
      <path class="cls-4" d="M465.62,402.5l39.9-.17c6.28,0,13.34-.59,19.51.36-19.65.86-39.58.19-59.25.19,0,6.12-1.11,14.68.48,20.5l-.38.06c-6.21-.43-12.74-.03-18.98,0-.62-6.85-.35-14.04-.45-20.92l19.18-.02Z"/>
      <path class="cls-4" d="M491.43,280.83c4.06,5.07,9.15,9.75,12.85,15.02,15.98,18.05,33.48,34.9,50.52,51.95l54.72,55.41c25.29-.12,50.58-.11,75.87.04v21.6s-82.62-.43-82.62-.43c-30.06-29.63-59.89-59.48-89.5-89.55-10.51-10.83-22.38-21.41-32.04-32.97-4.17-4.6-7.16-8.98-9.02-14.99,6.43-1.96,12.84-3.99,19.22-6.09Z"/>
      <path class="cls-9" d="M945.23,238.25c4.6,2.35,9.24,4.62,13.92,6.81.01,23.98-.48,48.09.29,72.06-12.93,13.63-26.41,26.75-39.64,40.08-9.58,9.66-18.89,19.86-29.15,28.79l-.15,44.99c-4.6,0-9.63-.41-14.17.27l.06-49.79c7.54-8.37,16.1-15.96,23.97-24.03,14.96-15.33,29.64-30.94,45.01-45.87l-.13-73.31Z"/>
      <path class="cls-4" d="M1136.84,402.28c6.43-.11,12.87-.31,19.29-.16,0,7.43.4,15.19-.29,22.58-6.6-.07-13.21-.06-19.81.05-15.98.1-31.97.1-47.95,0-5.76,7.44-12.62,14.2-19.2,20.92-15.46,15.81-32.05,31.07-46.23,48.04h-69.29c.02-5.06,0-10.11-.05-15.16,0-2.38-.17-4.65.79-6.88,6.57-.98,13.85-.34,20.51-.33h39.22c11.44-12.04,23.16-23.84,34.7-35.79,10.51-10.88,20.92-22.06,31.89-32.46,18.76-.65,37.64-.45,56.41-.8Z"/>
      <path class="cls-4" d="M1113.16,282.2c7.15,2.23,14.34,4.81,21.58,6.7-4.27,5.73-8.63,11.38-13.08,16.98l-116.73,119.1-89.07.2.05-22.3c26.61-.81,53.48-.04,80.12,0,34.21-34.92,68.96-69.45,102.34-105.16,4.85-5.24,9.77-10.41,14.77-15.51Z"/>
      <path class="cls-4" d="M768.63,924.88c6.41,1.08,13.43,2.79,19.94,2.4l.08,26.78c-6.76.15-13.42-.19-20.14-.81l.13-28.36Z"/>
      <path class="cls-4" d="M768.78,747.58c6.25,7.24,12.47,14.17,19.78,20.39.02,53.08-.66,106.24,0,159.31-6.51.39-13.53-1.32-19.94-2.4l.06-117.57c0-19.82-.73-39.93.09-59.73Z"/>
      <path class="cls-9" d="M704.14,685.01l1.09-.31c3.3,2.54,6.29,5.71,8.92,8.93l-.22,1.21c-7.36,6.03-13.91,13.93-20.49,20.84-10.55,11.05-21.16,22.04-31.83,32.99-.14,15.74-.19,31.48-.17,47.22,7.29,3.33,12.68,7.2,15.76,14.94.15.38.3.77.43,1.16.13.39.26.78.37,1.18.11.4.22.79.31,1.2.09.4.18.8.25,1.21.07.4.13.81.19,1.22.05.41.09.82.12,1.23.03.41.05.82.06,1.23,0,.41,0,.82,0,1.23-.01.41-.03.82-.06,1.23-.03.41-.07.82-.13,1.23-.05.41-.12.81-.19,1.22-.07.4-.16.81-.25,1.21-.09.4-.2.8-.31,1.19-.11.4-.24.79-.37,1.18-.13.39-.28.77-.43,1.16-.15.38-.32.76-.49,1.13-.17.38-.36.75-.55,1.12-.19.37-.39.74-.6,1.1-.21.36-.43.71-.66,1.06-.23.35-.46.69-.71,1.03-.25.34-.5.67-.76.99-.26.33-.53.64-.81.95-.28.31-.56.62-.85.91-.29.3-.59.59-.9.87-.31.28-.62.56-.94.82-.32.27-.65.53-.98.78-.33.25-.67.49-1.02.73-.35.23-.7.46-1.05.67-.36.22-.72.42-1.08.62-.37.2-.74.39-1.11.57-.38.18-.76.35-1.14.51-.38.16-.77.31-1.17.45-.38.13-.77.26-1.15.37-.39.12-.78.22-1.17.32-.39.1-.79.18-1.19.26-.4.08-.8.14-1.2.2-.4.06-.8.1-1.21.14-.4.04-.81.06-1.21.08-.4.02-.81.02-1.21.02-.4,0-.81-.02-1.21-.04-.4-.02-.81-.06-1.21-.1-.4-.04-.8-.1-1.2-.16-.4-.06-.8-.14-1.19-.22-.4-.08-.79-.18-1.18-.28-.39-.1-.78-.21-1.17-.33-.39-.12-.77-.25-1.15-.39-.38-.14-.76-.29-1.13-.45-.37-.16-.74-.33-1.1-.5-5.51-2.7-9.52-7.48-11.46-13.27-2.27-6.78-2.16-15.66,1.34-21.98,3.12-5.64,8.31-9.61,14.5-11.27-.1-17.22-.4-34.54.25-51.74,4.33-7.46,12.5-14.23,18.55-20.39,12.52-12.77,25.45-25.25,37.49-38.47Z"/>
      <path class="cls-5" d="M654.58,808.63c2.1.21,4.1.51,5.98,1.57,2.48,1.41,4.36,3.81,4.98,6.61.71,3.21-.04,6.52-1.83,9.25-2.46,3.74-5.46,4.67-9.67,5.47-1.81-.33-3.52-.79-5.13-1.73-2.8-1.63-4.94-4.22-5.6-7.43-.59-2.85.1-5.76,1.7-8.16,2.34-3.5,5.61-4.73,9.57-5.57Z"/>
      <path class="cls-9" d="M730.18,723.28c2.31.32,4.94.9,6.75,2.48,1.08.94,1.75,2.09,1.69,3.56-.13,3.18-2.72,6.24-4.85,8.36l-4.5,4.52.24,99.68c2.64,1.26,5.19,2.7,7.52,4.48.66.5,1.3,1.04,1.91,1.6.61.56,1.19,1.16,1.75,1.78.55.62,1.07,1.27,1.56,1.94.49.67.95,1.37,1.37,2.08.42.72.81,1.45,1.16,2.2.35.75.66,1.52.94,2.31.28.78.51,1.58.71,2.39.2.81.36,1.62.48,2.45.06.44.11.88.15,1.32.04.44.07.88.08,1.32.02.44.02.88.01,1.33,0,.44-.03.88-.05,1.32-.03.44-.07.88-.12,1.32-.05.44-.12.88-.19,1.31-.08.44-.16.87-.26,1.3-.1.43-.21.86-.32,1.29-.12.43-.25.85-.39,1.27-.14.42-.29.84-.46,1.25-.16.41-.34.82-.52,1.22-.18.4-.38.8-.58,1.19-.2.39-.42.78-.64,1.16-.22.38-.46.76-.7,1.13-.24.37-.5.73-.76,1.09-.26.36-.53.71-.81,1.05-4.67,5.62-11.03,8.39-18.19,8.98-4.84-.12-9.46-1.06-13.72-3.45-.37-.2-.73-.42-1.08-.64-.36-.22-.71-.45-1.05-.69-.34-.24-.68-.49-1.01-.74-.33-.26-.66-.52-.97-.79-.32-.27-.63-.55-.93-.84-.3-.29-.6-.58-.89-.89-.29-.3-.57-.61-.84-.93-.27-.32-.54-.64-.8-.97-.26-.33-.51-.67-.75-1.01-.24-.34-.47-.69-.69-1.05-.22-.35-.44-.72-.64-1.08-.2-.37-.4-.74-.58-1.11-.19-.38-.36-.76-.53-1.14-.17-.38-.32-.77-.47-1.16-.15-.39-.28-.79-.41-1.19-.13-.4-.24-.8-.35-1.21-.11-.43-.22-.87-.31-1.3-.09-.44-.17-.87-.24-1.32-.07-.44-.13-.88-.18-1.33-.05-.44-.08-.89-.11-1.33-.03-.45-.04-.89-.04-1.34,0-.45,0-.89.02-1.34.02-.45.05-.89.09-1.33.04-.44.09-.89.16-1.33.06-.44.14-.88.23-1.32.09-.44.18-.87.29-1.31.11-.43.23-.86.36-1.29.13-.43.27-.85.42-1.27.15-.42.31-.84.48-1.25.17-.41.35-.82.54-1.22.19-.4.39-.8.61-1.19.21-.39.43-.78.67-1.16,3.6-5.93,8.86-9.62,15.51-11.33l-.25-65c-.02-12.55-.35-25.19.2-37.72,3.57-5.85,8.23-11.75,14.3-15.09Z"/>
      <path class="cls-3" d="M720.08,854.06c2.15.15,4.53.36,6.5,1.3,3.24,1.56,5.89,4.51,6.91,7.97.12.4.22.81.29,1.22.08.41.14.82.17,1.24.04.42.05.83.05,1.25,0,.42-.03.83-.08,1.25-.05.42-.11.83-.2,1.24-.09.41-.19.81-.32,1.21-.13.4-.27.79-.44,1.17-.17.38-.35.76-.56,1.12-2.13,3.85-5.04,5.32-9.11,6.51-2.23-.2-4.71-.74-6.68-1.82-.4-.23-.8-.47-1.18-.74-.38-.27-.74-.55-1.09-.86-.35-.3-.69-.62-1-.96-.32-.34-.62-.69-.9-1.06-.28-.37-.55-.75-.79-1.14-.24-.39-.47-.8-.67-1.22-.2-.42-.38-.84-.54-1.28-.16-.44-.3-.88-.41-1.33-.8-3.12-.48-6.64,1.24-9.4,2.11-3.4,5.02-4.87,8.82-5.66Z"/>
      <path class="cls-4" d="M590.72,645.54l75.99-.2c6.8,7.02,13.7,13.95,20.68,20.79h-9.28c-25.37-.49-50.86-.35-76.24-.06-13.31,13.21-26.05,27.09-38.9,40.75-7.79,8.29-16.25,16.44-23.54,25.15-5.09,5.26-9.98,10.05-15.27,15.11-4.23-6.39-7.66-12.64-10.7-19.31,5.6-5.18,10.23-10.73,15.43-16.31,20.51-22.04,41.79-43.46,61.83-65.92Z"/>
      <path class="cls-9" d="M871.41,722.6c.59-.02,1.18-.04,1.76,0,4.48.25,12.55,10.77,15.56,14.22,1.09,33.46.09,68.19.1,101.77,1.9.81,3.88,1.61,5.61,2.72,5.49,3.53,9.33,9.46,10.52,15.85.07.41.14.82.19,1.23.05.41.1.82.13,1.24.03.41.05.83.07,1.24.01.41.01.83,0,1.24,0,.41-.03.83-.06,1.24-.03.41-.07.83-.12,1.24-.05.41-.11.82-.18,1.23-.07.41-.15.81-.24,1.22-.09.4-.19.81-.3,1.21-.11.4-.23.8-.36,1.19-.13.39-.27.78-.42,1.17-.15.39-.31.77-.48,1.15-.17.38-.35.75-.54,1.12-.19.37-.39.73-.59,1.09-.21.36-.42.71-.65,1.06-.22.35-.46.69-.7,1.03-4.75,6.59-10.97,9-18.65,10.31-3.97-.13-7.96-.74-11.58-2.44-5.98-2.8-10.36-7.81-12.43-14.07-2.17-6.55-1.77-14.12,1.62-20.19,3.37-6.05,9.36-9.98,15.94-11.75l-.83-96.15c-2.17-2.17-4.54-4.47-6.4-6.92-1.46-1.92-2.68-4.4-2.08-6.87.65-2.69,2.92-4.02,5.11-5.37Z"/>
      <path class="cls-11" d="M878.85,850.79c1.62-.06,3.47-.06,5.03.44.33.1.65.22.96.36.31.13.62.28.92.45.3.17.59.35.87.54.28.19.55.4.81.62.26.22.51.46.75.7.24.25.46.5.67.77.21.27.41.55.59.84.18.29.35.59.51.89,1.27,2.54,1.24,5.57.27,8.2-1.36,3.7-4,5.49-7.48,7-1.15.02-2.3.06-3.44-.14-.34-.06-.68-.13-1.01-.23-.33-.09-.66-.21-.98-.33-.32-.13-.63-.28-.94-.44-.31-.16-.6-.34-.89-.54-.29-.19-.56-.4-.83-.63-.26-.22-.52-.46-.75-.71-.24-.25-.46-.51-.67-.79-.21-.28-.41-.56-.59-.86-1.56-2.55-1.7-5.64-.92-8.46,1.11-4.01,3.62-5.79,7.12-7.68Z"/>
      <path class="cls-9" d="M895.43,684.3c10.97,11.87,22.21,23.48,33.71,34.83,7.2,7.23,16.24,14.87,21.93,23.26,1.18,17.46.45,35.31.58,52.82,7.12,2.68,12.84,6.52,16.05,13.74,2.85,6.42,2.64,13.82-.08,20.24-2.69,6.35-7.87,11.69-14.42,14.02-5.68,2.03-11.75,1.35-17.09-1.32-5.61-2.8-10.76-7.99-12.59-14.1-1.97-6.56-1.13-14.28,2.35-20.18,2.9-4.92,7.09-8.16,12.07-10.77v-48.91c-16.83-18.62-34.74-36.31-52.64-53.9,3.3-3.31,6.75-6.49,10.13-9.72Z"/>
      <path class="cls-12" d="M944.09,809.2c1.41-.06,2.87-.15,4.27.11.35.06.69.14,1.03.24s.67.21,1,.34c.33.13.64.28.95.44.31.16.61.34.91.54.29.19.57.4.84.63.27.22.53.46.78.71.25.25.48.51.7.79.22.27.43.56.62.85,1.56,2.43,1.86,5.39,1.09,8.14-1.12,3.98-3.73,5.79-7.21,7.66-1.36.06-2.79.15-4.14-.1-2.91-.55-5.6-2.47-7.09-5.03-1.45-2.51-1.61-5.54-.71-8.27,1.21-3.66,3.72-5.32,6.98-7.04Z"/>
      <path class="cls-4" d="M933.77,645.51l74.34-.05c20.92,20.41,41.33,41.51,61.55,62.61,6.65,7,13.14,14.43,20.27,20.92-3.58,6.62-7.15,13.02-10.41,19.8-6.71-7.51-13.83-14.21-20.97-21.32l-59.35-60.69-86.98.3c7.06-7.28,14-14.76,21.53-21.56Z"/>
      <path class="cls-4" d="M1058.56,727.45c7.13,7.1,14.26,13.81,20.97,21.32-32.22,52.57-69.45,96.65-110.85,141.16-5.29,5.02-16.57,16.78-22.04,21.55-5.28-5.1-10.72-9.72-16.08-14.75,6.51-6.67,23.59-24.52,30.75-32.47,38.02-40.88,67.04-78.63,84.75-112.58,4.43-7.77,9.28-15.87,12.49-24.24Z"/>
      <path class="cls-4" d="M788.49,139.92l.13,291.12-20.14-.08c1.02-38.61.17-77.45.02-116.08l-.38-140.36c.08-6.79-.01-13.6-.03-20.39,6.31-5.15,13.68-9.57,20.4-14.22Z"/>
      <path class="cls-4" d="M815.14,139.79c5.75,5.44,13.18,9.19,19.59,13.8l.02,21.43.39,174.19c-.02,27.32.26,54.68-.28,82-6.43.08-13.85.71-20.16-.47,1.07-23.87.1-48.16.1-72.09l-.03-143.55-.02-47.09c0-9.33-.45-18.93.39-28.22Z"/>
      <path class="cls-9" d="M874.34,200.69l14.44,8.31-.11,53.09,1.15.45c7.29,2.95,12.11,7.43,15.12,14.7,2.63,6.34,2.74,13.42.01,19.76-.16.37-.33.74-.51,1.1-.18.36-.37.72-.57,1.08-.2.35-.41.7-.62,1.05-.21.35-.44.68-.67,1.02-.23.33-.47.66-.72.98-.25.32-.51.64-.77.94-.26.31-.54.61-.81.91-.28.3-.57.58-.86.86-.29.28-.59.55-.9.82-.31.27-.62.52-.94.77-.32.25-.65.49-.98.73-.33.23-.67.46-1.01.68-.34.22-.69.43-1.05.63-.35.2-.71.39-1.07.57-.36.18-.73.35-1.1.52-.37.16-.75.32-1.13.46-.42.16-.85.31-1.29.45-.43.14-.87.27-1.31.38-.44.12-.88.22-1.32.32-.44.1-.89.18-1.34.26-.45.07-.9.14-1.35.19-.45.05-.9.09-1.36.12-.45.03-.91.05-1.36.06-.45,0-.91,0-1.36-.01-.45-.01-.91-.04-1.36-.08-.45-.04-.9-.08-1.35-.14-.45-.06-.9-.13-1.34-.21-.45-.08-.89-.17-1.33-.28-.44-.1-.88-.22-1.32-.34-.44-.12-.87-.26-1.3-.41-.43-.15-.86-.3-1.28-.47-.42-.17-.84-.34-1.25-.53-5.74-2.66-10.11-7.34-12.26-13.3-2.34-6.51-2.08-14.58.93-20.84,3.36-6.98,9.18-11.03,16.24-13.64-.86-20.26-.5-40.68-.57-60.97Z"/>
      <path class="cls-1" d="M878.15,275.45c1.61-.08,3.24-.13,4.84.11,3.14.47,6.12,2.47,7.86,5.11,1.74,2.63,2.19,5.85,1.39,8.88-1.1,4.18-3.66,6.09-7.29,8.12-2.24.16-4.61.39-6.81-.18-2.85-.74-5.44-2.89-6.76-5.51-.16-.32-.3-.65-.43-.99-.13-.34-.24-.68-.34-1.03-.1-.35-.17-.7-.24-1.05-.06-.35-.11-.71-.13-1.07-.03-.36-.04-.72-.03-1.08,0-.36.03-.72.07-1.08.04-.36.1-.71.18-1.07.08-.35.17-.7.28-1.04,1.32-4.05,3.76-6.15,7.4-8.12Z"/>
      <path class="cls-9" d="M731.4,198.71l-.09,63.81c5.52,1.22,9.87,4.03,12.99,8.84,3.89,6.01,5.31,14.13,3.77,21.1-.09.4-.18.8-.29,1.19-.11.39-.22.78-.35,1.17-.13.39-.26.77-.41,1.15-.15.38-.3.76-.47,1.13-.17.37-.34.74-.53,1.1-.19.36-.38.72-.58,1.08-.2.35-.42.7-.64,1.04-.22.34-.45.68-.69,1.01-.24.33-.49.66-.74.97-.26.32-.52.63-.79.93-.27.3-.55.6-.84.89-.29.29-.58.57-.88.85-.3.27-.61.54-.93.8-.32.26-.64.51-.97.75-.33.24-.66.47-1.01.7-.34.22-.69.44-1.04.65-6.08,3.58-14.01,4.26-20.75,2.36-6.43-1.82-11.77-5.99-14.81-11.98-.2-.39-.39-.79-.57-1.19-.18-.4-.35-.81-.51-1.22-.16-.41-.31-.83-.45-1.24-.14-.42-.27-.84-.38-1.27-.12-.42-.22-.85-.32-1.28-.1-.43-.18-.86-.25-1.3-.07-.43-.13-.87-.18-1.31-.05-.44-.09-.88-.12-1.32-.03-.44-.04-.88-.05-1.32,0-.44,0-.88.02-1.32.02-.44.05-.88.09-1.32.04-.44.09-.88.16-1.31.06-.44.14-.87.23-1.3.09-.43.18-.86.29-1.29.11-.43.23-.85.36-1.27.13-.42.27-.84.42-1.25,2.33-6.52,7.47-12.24,13.86-14.98,1.04-.44,2.1-.83,3.17-1.19-.05-18.11.26-36.29-.24-54.38,4.79-2.91,9.69-5.65,14.53-8.47Z"/>
      <path class="cls-12" d="M719.54,275.49c2.16-.18,4.64-.4,6.76.07,2.63.58,5.27,2.6,6.71,4.85.19.29.36.59.52.9.16.31.3.62.43.95.13.32.24.65.33.98.09.33.17.67.23,1.01.06.34.1.68.13,1.03.03.34.03.69.03,1.04,0,.35-.03.69-.08,1.03-.04.34-.1.68-.18,1.02-.98,4.27-3.5,6.48-7.07,8.72-1.85.21-3.76.38-5.61.02-3.25-.63-6.23-2.75-7.93-5.59-1.45-2.42-1.94-5.48-1.21-8.22,1.06-3.98,3.44-5.92,6.95-7.79Z"/>
      <path class="cls-9" d="M647.33,241.37c4.93-1.86,9.61-4.03,14.34-6.34l-.08,76.7,37.41,37.51c10.33,10.27,20.96,20.33,31.05,30.83v50.99s-12.57,0-12.57,0l-1.04-.96c-1.47-8.15-.2-32.47-.17-42.63l-68.81-69.37-.13-76.73Z"/>
      <path class="cls-7" d="M706.72,588.6v-20.99h53.67c7.52,0,10.89-4.49,10.89-13.17v-63.85h20.35v66.16c0,21.28-8.43,31.85-26.84,31.85h-58.08Z"/>
      <text/>
      <path class="cls-7" d="M839.57,588.6c-18.41,0-26.84-10.57-26.84-31.85v-66.16h20.35v63.85c0,8.69,3.37,13.17,10.89,13.17h53.67v20.99h-58.08Z"/>
      <path class="cls-4" d="M768.1,660.41c-8.61,0-11.75-4.04-11.75-11.45v-6.89c0-7.41,3.14-11.45,11.75-11.45h42.96v-3.22c0-4.64-2.02-6.89-6.29-6.89h-47.15v-10.78h49.69c10.55,0,15.42,5.46,15.42,16.46v34.2h-54.63ZM811.06,639.08h-38.69c-3.14,0-4.34,1.57-4.34,4.42v2.54c0,2.99,1.2,4.57,4.34,4.57h38.69v-11.53ZM830.44,660.41v-50.67h11.75v50.67h-11.75Z"/>
    </g>
  </g>
</svg>