<?xml version="1.0" encoding="UTF-8"?>
<svg id="Laag_2" data-name="Laag 2" xmlns="http://www.w3.org/2000/svg" xmlns:xlink="http://www.w3.org/1999/xlink" viewBox="0 0 5598.09 4546.4">
  <defs>
    <style>
      .cls-1 {
        fill: #000e72;
      }

      .cls-2 {
        fill: url(#linear-gradient-4);
      }

      .cls-3 {
        fill: url(#linear-gradient-2);
      }

      .cls-4 {
        fill: #1a5356;
      }

      .cls-5 {
        fill: #fdfefd;
      }

      .cls-6 {
        fill: url(#linear-gradient);
      }

      .cls-7 {
        fill: #ffca3a;
      }

      .cls-8 {
        fill: #c3fbea;
      }

      .cls-9 {
        fill: #099f8a;
      }

      .cls-10 {
        fill: #f72585;
      }

      .cls-11 {
        fill: #fff;
        stroke-width: 20.41px;
      }

      .cls-11, .cls-12 {
        stroke: #fff;
        stroke-miterlimit: 10;
      }

      .cls-12 {
        fill: url(#linear-gradient-3);
        stroke-width: 34.02px;
      }

      .cls-13 {
        fill: #45dcff;
      }

      .cls-14 {
        fill: #221e6e;
      }
    </style>
    <linearGradient id="linear-gradient" x1="0" y1="4394.96" x2="2169.65" y2="4394.96" gradientUnits="userSpaceOnUse">
      <stop offset="0" stop-color="#000e72"/>
      <stop offset="1" stop-color="#099f8a"/>
    </linearGradient>
    <linearGradient id="linear-gradient-2" x1="3086.23" y1="4394.96" x2="5598.09" y2="4394.96" gradientUnits="userSpaceOnUse">
      <stop offset="0" stop-color="#099f8a"/>
      <stop offset="1" stop-color="#000e72"/>
    </linearGradient>
    <linearGradient id="linear-gradient-3" x1="1253.08" y1="1939.44" x2="4345.02" y2="1939.44" xlink:href="#linear-gradient"/>
    <linearGradient id="linear-gradient-4" x1="1519.2" y1="1931.97" x2="4070.21" y2="1931.97" xlink:href="#linear-gradient"/>
  </defs>
  <g id="Layer_1" data-name="Layer 1">
    <g>
      <path class="cls-6" d="M0,4546.4v-64.87h185.21c25.95,0,37.58-13.87,37.58-40.71v-197.29h70.24v204.45c0,65.76-29.08,98.42-92.61,98.42H0ZM429.91,4546.4c-62.63,0-92.61-33.11-92.61-98.42v-204.45h71.13v197.29c0,26.84,12.08,40.71,36.68,40.71h209.37v-238h69.34v302.87h-293.92ZM1090.65,4546.4v-197.29c0-27.29-12.08-41.16-37.13-41.16h-211.61v238.45h-70.24v-302.87h296.6c63.08,0,92.61,33.11,92.61,98.42v204.45h-70.24ZM1206.94,4546.4v-302.87h70.24v302.87h-70.24ZM1413.62,4546.4c-63.52,0-93.05-32.66-93.05-98.42v-106.03c0-65.76,29.53-98.42,93.05-98.42h211.61c63.52,0,92.61,32.66,92.61,98.42v106.03c0,65.76-29.08,98.42-92.61,98.42h-211.61ZM1647.59,4349.11c0-27.74-11.63-41.16-37.58-41.16h-181.18c-25.95,0-37.58,13.42-37.58,41.16v91.71c0,26.84,11.63,40.71,37.58,40.71h181.18c25.95,0,37.58-13.87,37.58-40.71v-91.71ZM2099.41,4546.4c-4.92-3.58-7.6-8.95-7.6-19.68v-56.37c0-19.68-12.53-27.29-31.76-27.29h-227.71v103.34h-70.24v-302.87h324.79c51.45,0,70.24,24.16,70.24,68.45v38.92c0,50.11-24.61,57.71-42.95,60.39,18.79,1.79,47.42,11.63,47.42,58.16v57.26c0,10.74,3.13,16.11,8.05,19.68h-70.24ZM2087.33,4328.53c0-17.45-7.16-26.39-25.95-26.39h-229.05v85h225.92c17.45,0,29.08-6.71,29.08-26.39v-32.21Z"/>
      <path class="cls-4" d="M2434.01,4546.4c-51.45,0-70.24-24.16-70.24-68.45v-41.16c0-44.29,18.79-68.45,70.24-68.45h256.79v-19.24c0-27.74-12.08-41.16-37.58-41.16h-281.84v-64.42h297.05c63.08,0,92.16,32.66,92.16,98.42v204.45h-326.58ZM2690.8,4418.9h-231.29c-18.79,0-25.95,9.39-25.95,26.39v15.21c0,17.89,7.16,27.29,25.95,27.29h231.29v-68.89ZM2806.65,4546.4v-302.87h70.24v302.87h-70.24Z"/>
      <path class="cls-3" d="M3178.83,4546.4c-63.08,0-92.61-32.66-92.61-98.42v-204.45h70.24v197.29c0,26.84,12.08,40.71,37.13,40.71h226.37v64.87h-241.13ZM3542.53,4546.4c-63.52,0-93.05-32.66-93.05-98.42v-136c0-44.29,19.24-68.45,71.13-68.45h255.89c51.89,0,70.24,24.16,70.24,68.45v42.5c0,44.29-18.34,68.45-70.24,68.45h-256.34v17.9c0,26.84,11.63,40.71,37.58,40.71h281.39v64.87h-296.6ZM3776.95,4328.53c0-17.45-7.16-26.39-25.95-26.39h-204.9c-18.79,0-25.95,8.95-25.95,26.39v43.4h230.84c18.79,0,25.95-9.84,25.95-26.84v-16.55ZM3961.24,4546.4c-51.45,0-70.24-24.16-70.24-68.45v-41.16c0-44.29,18.79-68.45,70.24-68.45h256.79v-19.24c0-27.74-12.08-41.16-37.58-41.16h-281.84v-64.42h297.05c63.08,0,92.16,32.66,92.16,98.42v204.45h-326.58ZM4218.03,4418.9h-231.29c-18.79,0-25.95,9.39-25.95,26.39v15.21c0,17.89,7.16,27.29,25.95,27.29h231.29v-68.89ZM4401.43,4546.4c-51.89,0-71.13-24.16-71.13-80.08v-124.37c0-65.76,29.53-98.42,93.05-98.42h293.92v64.42h-278.71c-25.95,0-37.58,13.42-37.58,41.16v107.82c0,21.03,7.16,30.87,25.95,30.87h227.71v-106.47h69.79v165.08h-323ZM4862.64,4546.4c-62.63,0-92.61-33.11-92.61-98.42v-204.45h71.13v197.29c0,26.84,12.08,40.71,36.68,40.71h209.37v-238h69.34v302.87h-293.92ZM5293.88,4546.4c-63.52,0-93.05-32.66-93.05-98.42v-136c0-44.29,19.24-68.45,71.13-68.45h255.89c51.89,0,70.24,24.16,70.24,68.45v42.5c0,44.29-18.34,68.45-70.24,68.45h-256.34v17.9c0,26.84,11.63,40.71,37.58,40.71h281.39v64.87h-296.6ZM5528.3,4328.53c0-17.45-7.16-26.39-25.95-26.39h-204.9c-18.79,0-25.95,8.95-25.95,26.39v43.4h230.84c18.79,0,25.95-9.84,25.95-26.84v-16.55Z"/>
    </g>
    <g>
      <path class="cls-12" d="M2799.28,20.56c38.47,26.04,74.67,55.54,112.06,83.1,48.14,35.33,97.41,69.01,147.81,101.04,37.71,23.94,75.86,47.16,114.44,69.68,38.58,22.52,77.56,44.3,116.96,65.36,39.39,21.06,79.16,41.38,119.31,60.95,40.15,19.58,80.65,38.4,121.5,56.46,40.85,18.06,82.03,35.36,123.53,51.89,41.5,16.53,83.29,32.28,125.38,47.24,42.09,14.97,84.44,29.15,127.05,42.53,42.62,13.39,85.47,25.98,128.55,37.76,101.8,28.46,204.57,50.92,307.56,74.43,2.37,52.82-.33,106.74-.41,159.66l.62,277.06c-.33,129.39,3.33,258.94-.11,388.32-5.36,201.9-28.26,410.2-81.33,605.44-119.58,439.88-308,781.36-627.53,1106.9-36.71,37.28-74.34,73.61-112.91,108.96-38.56,35.36-78.01,69.71-118.33,103.05-40.32,33.34-81.47,65.63-123.44,96.87-41.97,31.24-84.72,61.38-128.23,90.43-113.21,76.27-232.37,142.73-350.69,210.53-.14.02-.28.06-.42.06-12.11.25-80.55-41.24-95.91-49.95-261.39-148.11-506.19-323.49-718.95-536.22-410.69-410.64-669.04-910.83-722.26-1493.57-13.75-150.51-10-301.82-9.95-452.79l.02-615.66c27.6-5.15,55.14-10.61,82.62-16.39,27.48-5.78,54.88-11.88,82.22-18.29,27.33-6.41,54.59-13.14,81.77-20.18,27.18-7.04,54.28-14.39,81.29-22.06,27.01-7.66,53.93-15.64,80.76-23.92,26.83-8.28,53.56-16.87,80.19-25.78,26.63-8.9,53.15-18.11,79.57-27.62,26.42-9.51,52.72-19.33,78.91-29.44,26.19-10.12,52.26-20.54,78.22-31.26,25.95-10.72,51.78-21.74,77.47-33.05,25.7-11.32,51.26-22.92,76.69-34.83,25.43-11.91,50.72-24.1,75.87-36.59,25.15-12.49,50.15-25.26,75-38.32,24.85-13.06,49.56-26.41,74.1-40.05,24.55-13.63,48.93-27.55,73.16-41.74,24.23-14.19,48.28-28.66,72.18-43.41,66.07-41.39,130.97-86.25,194.1-132.02,34-24.65,66.87-50.97,101.56-74.64Z"/>
      <g>
        <path class="cls-9" d="M2804.36,179.72c93.73,83.59,196.43,155.96,301.77,224.08,29.09,18.52,58.56,36.41,88.4,53.69,12.71,7.49,30.23,15.22,41.04,24.83,74.54,38.32,147.46,79.25,223.29,115.13,71.43,33.19,143.76,64.28,216.99,93.28,73.23,28.99,147.24,55.84,222.03,80.54,64.97,21.99,131.3,41.95,197.28,60.69,34.13,9.7,69.8,17.36,103.22,29.13.37,61.88,2.26,126.23,2.26,187.6,0,57.03,0,112.87.24,168.69.56,132.19,2.36,268.99-6.64,400.79-17.13,250.87-67.47,521.3-157.08,757.28-134.02,352.94-363.67,666.32-643.59,917.59-141.93,127.4-296.6,234.7-460.1,332.38-41.83,24.99-86.94,55.32-132.08,73.75-29.4-20.79-64.89-36.26-96.36-54.12-57.38-32.7-113.5-67.45-168.35-104.25-30.69-20.69-60.96-41.96-90.83-63.82-29.87-21.86-59.3-44.29-88.3-67.29-29-23-57.54-46.55-85.62-70.66-28.08-24.11-55.69-48.74-82.82-73.92-27.13-25.17-53.77-50.86-79.9-77.06-26.14-26.2-51.76-52.9-76.86-80.1-25.1-27.2-49.67-54.87-73.7-83.02-24.03-28.15-47.51-56.75-70.43-85.81-43.73-55.81-80.36-116.07-122.52-172.8-46.27-71.94-89.5-143.45-127.5-220.29-265.66-537.23-252.32-1106.08-246.26-1688.69,102.19-27.04,205.03-60.16,304.86-94.96,53.02-18.49,105.49-40.48,159.16-56.8,107.93-45.78,216.43-87.97,322.77-137.7,44-20.88,87.51-42.72,130.54-65.54,43.02-22.82,85.52-46.58,127.49-71.29,41.96-24.71,83.36-50.35,124.18-76.91,40.82-26.56,81.03-54.01,120.63-82.36,41.27-29.55,83.83-59.55,122.8-92.09Z"/>
        <path class="cls-1" d="M4201.05,1217.39c-.24-55.82-.24-111.65-.24-168.69,0-61.37-1.89-125.72-2.26-187.6-33.42-11.78-69.09-19.43-103.22-29.13-65.98-18.75-132.3-38.7-197.28-60.69-74.79-24.7-148.8-51.55-222.03-80.54-73.23-29-145.56-60.09-216.99-93.28-75.83-35.88-148.75-76.81-223.29-115.13-10.8-9.61-28.33-17.35-41.04-24.83-29.84-17.28-59.31-35.17-88.4-53.69-105.34-68.12-208.03-140.49-301.77-224.08-2.92,2.43-5.89,4.83-8.85,7.24v3508.28c1.96,1.31,3.96,2.58,5.87,3.93,45.15-18.42,90.25-48.76,132.09-73.75,163.5-97.68,318.17-204.97,460.1-332.38,279.92-251.27,509.57-564.65,643.59-917.59,89.6-235.97,139.95-506.41,157.08-757.28,9-131.8,7.2-268.6,6.64-400.79Z"/>
      </g>
      <path class="cls-14" d="M3658.56,689.43c6.04.33,11.58,1.21,17.19,3.59,10.31,4.37,18.62,11.45,22.6,22.12,3.74,10.03,2.76,21-2,30.5-6.8,13.56-17.98,19.75-31.98,23.94-7.37-.19-14.06-1.1-20.88-4.13-9.28-4.12-16.55-11.39-20.08-20.94-3.56-9.64-2.71-20.28,1.61-29.52,6.95-14.86,18.67-20.55,33.53-25.56Z"/>
      <path class="cls-2" d="M2802.73,335.44c85.04,75.84,178.21,141.5,273.78,203.3,26.4,16.8,53.13,33.04,80.2,48.71,11.53,6.79,27.43,13.81,37.23,22.53,67.63,34.77,133.78,71.9,202.58,104.46,64.81,30.11,130.43,58.32,196.87,84.63,66.44,26.3,133.59,50.66,201.44,73.07,58.95,19.95,119.12,38.06,178.98,55.06,30.97,8.8,63.32,15.75,93.65,26.43.33,56.14,2.05,114.52,2.05,170.2,0,51.74,0,102.4.22,153.04.51,119.93,2.14,244.05-6.02,363.62-15.54,227.6-61.22,472.96-142.51,687.05-121.59,320.2-329.94,604.52-583.9,832.49-128.76,115.59-269.09,212.93-417.43,301.55-37.95,22.67-78.88,50.19-119.83,66.91-26.68-18.86-58.87-32.89-87.42-49.1-52.06-29.67-102.97-61.2-152.74-94.58-27.84-18.77-55.31-38.07-82.41-57.9-27.1-19.83-53.8-40.18-80.11-61.05-26.31-20.87-52.2-42.23-77.68-64.1-25.48-21.87-50.52-44.22-75.14-67.06-24.61-22.84-48.78-46.14-72.49-69.92-23.71-23.77-46.96-48-69.73-72.67-22.77-24.67-45.06-49.78-66.87-75.32-21.8-25.54-43.1-51.49-63.9-77.85-39.68-50.64-72.9-105.3-111.16-156.77-41.98-65.27-81.2-130.15-115.68-199.86-241.02-487.41-228.92-1003.5-223.42-1532.08,92.71-24.53,186.02-54.58,276.59-86.15,48.11-16.77,95.71-36.72,144.4-51.53,97.92-41.53,196.36-79.81,292.83-124.93,39.92-18.94,79.4-38.76,118.43-59.46,39.03-20.7,77.59-42.26,115.66-64.68,38.07-22.42,75.63-45.68,112.67-69.77,37.04-24.09,73.52-49,109.44-74.72,37.45-26.81,76.06-54.03,111.41-83.55Z"/>
      <path class="cls-5" d="M3931.1,982.73c23.27,8.88,47.11,15.81,70.95,22.96l1.84,362.19c-21.87-.5-43.77.17-65.63.55-.36-105.41.03-210.81,1.17-316.21-17.79-2.28-35.4-7.44-52.8-11.74,15.12-19.02,29.95-38.27,44.48-57.75Z"/>
      <path class="cls-5" d="M1673.02,2090.38l75.33.03c5.45,62.04,86.73,272.13,121.87,329.7-17.67,18.98-33.44,37.86-52.48,55.49-14.76-35.93-34.3-69.91-49.23-105.81-18.94-45.48-36.38-91.53-52.31-138.15-15.93-46.62-30.32-93.71-43.17-141.27Z"/>
      <path class="cls-5" d="M1586.24,1002.12c30.22-8.67,60.42-19.64,91.16-26.13,6.32,20.42,16.5,35.34,30.67,50.98-18.16,6.03-36.27,10.88-54.87,15.29-2.12,80.13-2.5,160.26-1.13,240.4.68,28.64.43,57.99,2.95,86.5l-65.23.05c-3.76-41.66-2.3-84.64-2.72-126.5-.77-80.2-1.05-160.39-.83-240.59Z"/>
      <path class="cls-5" d="M3926.99,2090.19c-10.79,35.78-20.02,71.96-31.53,107.52-15.28,47.21-96.36,247.27-116.76,282-24.26-22.07-46.36-47.35-68.96-71.15,38.65-67.43,115.61-240.07,131.67-318.46l85.58.09Z"/>
      <path class="cls-5" d="M1591.31,1440.4c21.23-.09,43.43-1.46,64.56.02-1.32,93.29,5.99,190.27,16.68,282.86,3.1,26.83,5.24,54.99,10.76,81.4l7.04,44.31c8.15,57.42,21.31,115.83,36.13,171.9,3.55,12.56-5.67,25.88,23.47,27.23-53.15,1.02-41.81-25.77-94.96-25.86-9.63-62.47-24.44-124.1-33.46-186.79-18.92-131.59-26.57-262.31-30.22-395.06Z"/>
      <path class="cls-5" d="M2910.08,2536.84c.25,43.25.09,86.49-.47,129.73-2.78,57.73-1.03,116.22-1.02,174.06l-.31,310.43c-23.06,4.34-46.74,7.8-70.15,9.66,1.64-183.24-4.13-367.18,1.36-550.32,25.5-23.01,48.22-47.59,70.59-73.56Z"/>
      <path class="cls-5" d="M3889.6,1850.91c4.99-12.31,7.03-30.16,8.32-43.07,1.97-39.47,13.16-79.41,18.26-118.76,10.34-81.1,16.79-162.51,19.34-244.22,22.46-.36,44.93-.42,67.39-.17-4.6,95.28-4.09,190.31-14.2,285.38-10.32,96.97-31.19,191.65-45.88,287.83l-86.76-.21"/>
      <path class="cls-5" d="M2908.04,3150.65l.31-310.43c0-57.84-1.76-116.33,1.02-174.06l.22,569.87.3,48.33c104.29-49.65,244.19-152.86,326.43-234.39,18.22,17.1,37.06,33.14,55.02,50.48l-2.18,1.54c-30.71,24.88-63.08,51.02-95.17,75.6-41.08,31.99-83.21,62.52-126.39,91.61-43.18,29.08-87.31,56.65-132.39,82.7-31.61,18.04-64.23,36.79-97.88,50.75.04-53.85-.44-107.76.16-161.61l.39-80.74c23.41-1.86,47.09-5.31,70.15-9.66Z"/>
      <path class="cls-5" d="M2683.89,524.3c.07,23.11.39,46.25.12,69.35-39.53,31.41-83.65,53.79-124.92,82.28-16.46,9.59-33.14,18.92-49.42,28.81-62.07,32.59-124.66,64.17-187.75,94.73-16.09,7.86-32.04,15.23-48.79,21.56-42.15,16.69-83.26,35.8-125.12,53.19-54.63,22.15-109.6,43.45-164.89,63.9-64.82,24.11-132.89,41.64-196.62,68.25-12.59-17.94-29.89-33.85-43.71-51.1,63.81-20,128.38-41.04,190.54-65.74,26.07-3.98,70.08-25.78,96.16-35.85,84.83-32.27,168.31-67.72,250.43-106.36,82.13-38.63,162.66-80.34,241.61-125.12,51.91-29.46,105.1-59.05,153.71-93.7l8.65-4.21Z"/>
      <path class="cls-13" d="M3231.44,1622.24c-2.88,104.27-1.24,208.93-1.22,313.23.02,48.14,2.18,97.33-1.24,145.33-.8,11.22-14.67,26.29-22.08,34.55-24.02,26.8-50.95,51.61-76.03,77.47l-203.53,206.92c-26.37,26.35-52.38,53.04-78.05,80.07-16.14,16.86-32.43,36.37-50.7,50.82-1.53,1.21-3.64,3.34-5.56,3.25,2.22-32.51-4.7-66.65.92-98.95,4.34-1.04,7.65-2.97,11.03-5.83,44.62-37.68,85.5-81.86,126.43-123.5l129.77-130.04c32.04-32.55,80.55-73.81,106.02-109.47,4.35-46.87,1.1-96.63,1.15-143.89-.3-100.04.09-200.09,1.15-300.12l61.93.16Z"/>
      <path class="cls-5" d="M2910.58,522.46c75.51,47.8,150.95,96.06,229.06,139.56,147.83,82.32,301.8,149.87,459.61,210.42,84.04,32.25,171.17,65.14,258.44,87.5-17.02,17.33-33.77,34.92-50.26,52.76-80.65-25.11-160.47-52.6-239.47-82.47-79-29.87-157.05-62.08-234.13-96.61-15.91-7.46-31.7-15.19-47.35-23.17-19.47-13.47-46.04-23.64-67.51-34.46-41.81-21.12-83.31-42.81-124.52-65.07l-49.12-28.26c-45.35-28.28-91.36-56-134.68-87.31l-.06-72.88Z"/>
      <path class="cls-5" d="M1854.14,2541.28c17.99-17.22,34.63-33.52,51.96-51.41,21.77,39.45,44.94,78.06,69.5,115.83,24.57,37.77,50.47,74.6,77.7,110.5,180.76,242.94,373.73,405.3,631.44,562.46l.57-36.1c22.87,2.11,45.55,3.28,68.52,2.77-.21,51.2.08,102.4.88,153.6-46.48-20.33-91.7-48.56-135-74.9-14.48-8.87-28.86-17.9-43.14-27.09-14.28-9.19-28.44-18.55-42.5-28.07-14.06-9.52-28.02-19.2-41.86-29.03-13.84-9.84-27.57-19.83-41.18-29.99-13.61-10.15-27.11-20.46-40.48-30.92-13.38-10.46-26.63-21.07-39.77-31.84-13.13-10.77-26.14-21.68-39.03-32.74-12.88-11.06-25.64-22.26-38.27-33.62-12.63-11.36-25.13-22.85-37.49-34.49-12.37-11.64-24.6-23.42-36.69-35.34-12.09-11.92-24.05-23.97-35.87-36.16-11.82-12.19-23.5-24.52-35.04-36.98-11.54-12.46-22.93-25.05-34.18-37.77-11.25-12.72-22.36-25.56-33.31-38.54-10.96-12.97-21.76-26.07-32.42-39.29-10.66-13.22-21.16-26.56-31.51-40.02-37.27-48.37-72.61-98.11-106.03-149.21-17.61-27.17-39.09-61.79-54.12-87.67-.86-1.05-1.81-2.95-2.69-3.99Z"/>
      <path class="cls-5" d="M3313.88,2038.35c.12-6.86-.74-14.68,3.04-20.46,21.07-2.02,42.83-.74,64.01-.69l108.83.05,358.68.42,94.37.22c-5.09,24.14-10.37,48.23-15.84,72.28l-99.31-.11-343.47-.16-111.37-.04c-15.85,0-32.27,1.26-48.03.25-5.92-.38-7.29.16-11.57-3.86,1.1-16.06,1.04-31.85.65-47.93Z"/>
      <path class="cls-8" d="M2365.29,1549.96c126.36-3.72,253.61-1.11,380.07-1.04,162.08.09,324.34-1.46,486.41.63l-.32,72.68-61.93-.16c-124.38.09-249.62,2.88-373.91-1.4l-359.9-.22c1.27,110.35-2.43,220.95-.38,331.23l1.23,116.5c19.28,29.15,49.3,54.83,73.98,79.73l137.09,137.1c29.06,28.78,57.84,57.83,86.34,87.16,19.44,20.11,38.28,41.27,58.88,60.16l1.12,2.6c-5.62,32.31,1.3,66.44-.92,98.95-117.7-121.64-236.91-241.79-357.63-360.44-24.91-24.85-55.06-52.44-65.87-87.17-10.57-33.98-4.55-187.75-4.39-235.17l.13-301.14Z"/>
      <path class="cls-5" d="M1814.44,2020.85l470-.95c-.34,21.98-1.45,44.43.63,66.33-12.01,6.73-480.57,3.73-536.73,4.17l-75.33-.03c-8.35-21.51-12.87-45.65-18.03-68.14,53.16.1,106.31-.37,159.45-1.39Z"/>
      <path class="cls-8" d="M3589.69,1805.87c1.12-3.39,2.35-6.73,3.69-10.04,8.22-20.22,23.53-36.62,43.94-44.87,22.61-9.14,50.1-7.74,72.1,2.49,25.1,11.67,37.39,30.57,46.24,55.66,47.42-1.35,94.84-1.77,142.27-1.26-1.3,12.91-2.92,30.34-8.32,43.07l-134.72-.33c-1.83,5.59-3.72,11.18-6.18,16.53-9.44,20.54-26.2,36.42-47.63,43.94-23.02,8.08-49.55,5.51-71-5.92-22.81-12.15-34.08-30.58-41.78-54.32-91.3.43-182.6.38-273.89-.14l-.21-1.02.14-44.85c91.78,1.09,183.57,1.44,275.36,1.06Z"/>
      <path class="cls-7" d="M3665.95,1789.62c6.55-.05,12.89.03,19.16,2.17,1.3.45,2.57.96,3.81,1.54,1.25.58,2.46,1.22,3.64,1.93,1.18.71,2.31,1.47,3.42,2.29,1.1.82,2.16,1.7,3.17,2.63,1.01.93,1.97,1.91,2.88,2.94.91,1.03,1.76,2.1,2.56,3.22.8,1.12,1.54,2.27,2.21,3.47.68,1.19,1.29,2.42,1.84,3.68.54,1.24,1.01,2.5,1.42,3.78.41,1.28.74,2.59,1.01,3.91.27,1.32.47,2.65.59,3.99.13,1.34.18,2.69.17,4.03-.01,1.35-.1,2.69-.26,4.02-.16,1.34-.39,2.67-.69,3.98-.3,1.31-.66,2.61-1.1,3.88-.44,1.28-.94,2.52-1.51,3.75-5.72,12.36-15.92,18.57-28.31,22.93-6.22.17-12.56.01-18.55-1.9-9.43-3.01-18.15-10.14-22.7-18.95-4.71-9.15-5.21-19.65-1.89-29.33,5.04-14.72,15.57-21.76,29.14-27.95Z"/>
      <path class="cls-9" d="M2435.7,1620.45l359.9.22c-.15,20.72.36,41.67-.64,62.36-.57,24.82-.73,49.64-.5,74.46l-.42,264.21v280.64c-.02,40.1,4.04,91.38-1.2,129.98-20.6-18.89-39.44-40.05-58.88-60.16-28.51-29.33-57.29-58.38-86.34-87.16l-137.09-137.1c-24.67-24.9-54.7-50.58-73.98-79.73l-1.23-116.5c-2.06-110.28,1.65-220.88.38-331.23Z"/>
      <path class="cls-1" d="M2795.6,1620.67c124.29,4.29,249.53,1.49,373.91,1.4-1.06,100.04-1.45,200.08-1.15,300.12-.05,47.26,3.2,97.02-1.15,143.89-25.47,35.66-73.98,76.92-106.02,109.47l-129.77,130.04c-40.93,41.63-81.81,85.82-126.43,123.5-3.39,2.86-6.69,4.79-11.03,5.83l-1.12-2.6c5.24-38.6,1.18-89.89,1.21-129.98v-280.64s.41-264.21.41-264.21c-.23-24.82-.07-49.64.5-74.46,1.01-20.68.49-41.64.64-62.36Z"/>
      <path class="cls-8" d="M1848.24,1806.28c11.21-22.12,27.37-39.25,51.77-46.73,1.18-.37,2.36-.7,3.55-1.01,1.19-.31,2.39-.59,3.6-.83,1.21-.25,2.42-.46,3.64-.64,1.22-.18,2.44-.34,3.66-.46,1.23-.12,2.46-.21,3.69-.27,1.23-.06,2.46-.08,3.69-.08,1.23,0,2.46.04,3.69.11,1.23.07,2.46.17,3.69.3,1.22.13,2.45.29,3.66.49,1.22.19,2.43.41,3.63.67,1.2.26,2.4.54,3.6.86,1.19.32,2.37.66,3.55,1.04,1.17.38,2.34.78,3.49,1.22,1.15.44,2.29.9,3.42,1.4,1.13.49,2.25,1.02,3.35,1.57,1.1.55,2.19,1.13,3.26,1.74,16.55,9.38,27.82,23.77,35.86,40.73l290.92-.5c-.11,14.38-.92,29.18.06,43.51l-288.47.26c-1.36,3.41-2.79,6.79-4.27,10.15-9.03,20.16-24.9,36.07-45.93,43.47-19.3,6.79-41.73,6.21-60.15-2.95-21.99-10.93-32.53-29.56-40.54-51.67l-154.32.33-7.04-44.31c54.96,1.59,109.94,2.12,164.93,1.61Z"/>
      <path class="cls-10" d="M1907.33,1800.47c5.42-.41,10.95-.78,16.37-.11,9.88,1.22,19.92,7.38,25.77,15.41,4.99,6.84,6.69,14.96,4.8,23.22-2.72,11.88-11.74,18.58-21.34,24.98-6.2,1.23-12.5,2.68-18.79,1.27-1.17-.27-2.32-.6-3.46-.98-1.14-.38-2.25-.82-3.34-1.32-1.09-.5-2.16-1.05-3.2-1.65-1.04-.6-2.04-1.25-3.01-1.96-.97-.7-1.91-1.45-2.81-2.25-.9-.8-1.75-1.63-2.57-2.51-.81-.88-1.58-1.8-2.31-2.75-.72-.96-1.39-1.95-2.02-2.97-.61-1.03-1.17-2.09-1.68-3.19-.51-1.09-.95-2.2-1.34-3.34-.39-1.14-.72-2.29-.99-3.46-.27-1.17-.48-2.35-.63-3.54-.15-1.19-.24-2.39-.26-3.59-.03-1.2.01-2.4.11-3.6.1-1.2.26-2.39.48-3.57.22-1.18.5-2.35.85-3.5,3.24-10.68,10.07-15.31,19.38-20.59Z"/>
      <path class="cls-5" d="M1655.02,1369.16l135.72-.57c21.37-.02,45.38-2,66.38,1.23,47.32,51.48,97.41,100.42,146.8,149.9,26.42,26.47,51.8,54.01,78.55,80.14,67.46.65,135.04-1.02,202.47.11.02,17.95-1.19,36.85.87,54.66l-.29,16.37c-76.14,2.95-153.23.31-229.47.15-76.13-76.08-151.34-153.06-225.64-230.92-57.72-.62-115.51-.02-173.24,0l-1.3.2c-21.13-1.48-43.33-.11-64.56-.02-2.12-23.29-1.19-47.74-1.52-71.18l65.23-.05Z"/>
      <path class="cls-5" d="M1655.02,1369.16l135.72-.57c21.37-.02,45.38-2,66.38,1.23-66.83,2.93-134.62.66-201.56.66-.02,20.81-3.77,49.92,1.62,69.74l-1.3.2c-21.13-1.48-43.33-.11-64.56-.02-2.12-23.29-1.19-47.74-1.52-71.18l65.23-.05Z"/>
      <path class="cls-5" d="M1742.79,955.29c13.83,17.25,31.12,33.16,43.71,51.1,54.37,61.39,113.88,118.71,171.83,176.72l186.14,188.47c86.03-.42,172.05-.38,258.07.13v73.48s-281.05-1.46-281.05-1.46c-102.25-100.77-203.73-202.32-304.44-304.63-35.74-36.82-76.12-72.82-108.99-112.14-14.17-15.64-24.35-30.56-30.67-50.98,21.87-6.67,43.67-13.57,65.39-20.7Z"/>
      <path class="cls-8" d="M3286.48,810.45c15.66,7.98,31.44,15.71,47.35,23.17.05,81.59-1.63,163.58.97,245.11-43.98,46.35-89.84,90.98-134.84,136.33-32.6,32.86-64.26,67.56-99.16,97.94l-.52,153.05c-15.65-.02-32.77-1.4-48.19.92l.2-169.38c25.64-28.46,54.75-54.3,81.53-81.74,50.88-52.15,100.82-105.26,153.09-156.04l-.45-249.37Z"/>
      <path class="cls-5" d="M3938.25,1368.43c21.87-.38,43.77-1.05,65.63-.55,0,25.29,1.37,51.68-.97,76.82-22.46-.25-44.93-.2-67.39.17-54.37.34-108.74.33-163.11-.03-19.59,25.31-42.94,48.32-65.3,71.18-52.58,53.77-109.02,105.68-157.26,163.41l-235.7-.02c.08-17.19.02-34.37-.18-51.56,0-8.09-.56-15.81,2.7-23.4,22.35-3.33,47.13-1.14,69.75-1.13l133.41.02c38.92-40.97,78.77-81.11,118.03-121.75,35.75-37.01,71.15-75.02,108.48-110.43,63.81-2.22,128.03-1.54,191.9-2.73Z"/>
      <path class="cls-5" d="M3857.69,959.94c24.32,7.58,48.79,16.37,73.4,22.78-14.53,19.48-29.36,38.73-44.48,57.75l-397.07,405.15-302.98.67.19-75.86c90.52-2.77,181.93-.12,272.55,0,116.38-118.78,234.58-236.23,348.14-357.73,16.49-17.84,33.24-35.42,50.26-52.76Z"/>
      <path class="cls-5" d="M2685.74,3146.09c21.81,3.67,45.68,9.5,67.82,8.16l.27,91.08c-22.98.52-45.66-.66-68.52-2.77l.43-96.47Z"/>
      <path class="cls-5" d="M2686.26,2543c21.24,24.62,42.43,48.21,67.28,69.35.07,180.56-2.23,361.39.03,541.91-22.14,1.34-46.01-4.49-67.82-8.16l.19-399.93c0-67.44-2.47-135.82.32-203.17Z"/>
      <path class="cls-8" d="M2466.37,2330.16l3.69-1.07c11.21,8.65,21.41,19.41,30.34,30.38l-.74,4.13c-25.05,20.5-47.33,47.4-69.68,70.89-35.9,37.58-71.98,74.99-108.26,112.2-.46,53.55-.65,107.09-.57,160.63,24.81,11.33,43.13,24.5,53.62,50.83.52,1.3,1.01,2.61,1.46,3.94.45,1.33.87,2.66,1.26,4,.39,1.35.74,2.7,1.05,4.07.32,1.36.6,2.73.85,4.11.25,1.38.46,2.76.63,4.15.17,1.39.32,2.78.42,4.18.1,1.4.17,2.79.21,4.19.03,1.4.03,2.8,0,4.2-.04,1.4-.11,2.8-.22,4.19-.11,1.4-.25,2.79-.43,4.18-.18,1.39-.39,2.77-.64,4.15-.25,1.38-.53,2.75-.85,4.11-.32,1.36-.68,2.72-1.06,4.06-.39,1.35-.81,2.68-1.27,4-.46,1.32-.95,2.63-1.47,3.93-.52,1.3-1.08,2.59-1.67,3.86-.59,1.29-1.21,2.56-1.87,3.82-.65,1.26-1.34,2.5-2.06,3.73-.72,1.22-1.46,2.43-2.24,3.62-.78,1.19-1.58,2.36-2.41,3.5-.84,1.15-1.7,2.27-2.59,3.38-.89,1.11-1.81,2.19-2.75,3.25-.95,1.06-1.91,2.1-2.91,3.11-1,1.01-2.02,2-3.06,2.96-1.04.96-2.11,1.9-3.2,2.8-1.09.91-2.2,1.79-3.33,2.64-1.13.85-2.29,1.68-3.47,2.47-1.18.8-2.37,1.56-3.58,2.29-1.21.74-2.44,1.44-3.69,2.12-1.25.67-2.51,1.32-3.79,1.93-1.28.61-2.58,1.19-3.88,1.73-1.31.55-2.63,1.06-3.97,1.54-1.3.46-2.61.88-3.93,1.27-1.32.39-2.65.75-3.99,1.07-1.34.33-2.68.62-4.04.88-1.35.26-2.71.48-4.07.67-1.36.19-2.73.35-4.1.48-1.37.12-2.74.21-4.12.27-1.38.06-2.75.08-4.13.07-1.38-.01-2.75-.06-4.13-.14-1.37-.08-2.75-.19-4.11-.34-1.37-.15-2.73-.33-4.09-.54-1.36-.21-2.72-.46-4.06-.74-1.35-.28-2.69-.6-4.02-.94-1.33-.35-2.65-.73-3.97-1.14-1.31-.41-2.62-.86-3.91-1.33-1.29-.48-2.57-.98-3.84-1.52-1.27-.54-2.52-1.11-3.76-1.71-18.76-9.17-32.37-25.45-38.97-45.15-7.71-23.05-7.34-53.29,4.57-74.78,10.63-19.19,28.28-32.69,49.33-38.34-.33-58.57-1.35-117.48.84-176,14.73-25.37,42.53-48.39,63.09-69.37,42.59-43.43,86.59-85.88,127.53-130.85Z"/>
      <path class="cls-7" d="M2297.79,2750.65c7.16.73,13.96,1.73,20.33,5.33,8.45,4.78,14.82,12.97,16.93,22.49,2.41,10.92-.13,22.18-6.22,31.45-8.36,12.73-18.57,15.88-32.89,18.6-6.17-1.13-11.98-2.68-17.44-5.88-9.52-5.56-16.8-14.35-19.05-25.28-2-9.7.33-19.59,5.79-27.77,7.95-11.91,19.1-16.08,32.56-18.95Z"/>
      <path class="cls-8" d="M2554.95,2460.35c7.85,1.1,16.8,3.05,22.95,8.43,3.66,3.2,5.96,7.12,5.76,12.12-.44,10.81-9.24,21.23-16.51,28.45l-15.3,15.39.8,339.08c8.97,4.29,17.65,9.19,25.56,15.23,2.25,1.71,4.42,3.52,6.5,5.44,2.08,1.92,4.06,3.94,5.94,6.05,1.88,2.11,3.65,4.31,5.32,6.59,1.67,2.29,3.22,4.65,4.66,7.08,1.44,2.43,2.75,4.93,3.95,7.5,1.19,2.56,2.26,5.18,3.2,7.85.94,2.67,1.75,5.38,2.42,8.12.68,2.75,1.22,5.52,1.62,8.32.21,1.49.38,2.98.51,4.48.13,1.5.22,3,.28,4.51.05,1.5.07,3.01.04,4.51-.03,1.5-.09,3.01-.19,4.51-.1,1.5-.24,3-.42,4.49-.18,1.49-.39,2.98-.65,4.46-.26,1.48-.55,2.96-.88,4.43-.33,1.47-.7,2.92-1.1,4.37-.41,1.45-.85,2.89-1.33,4.31-.48,1.43-1,2.84-1.55,4.24-.55,1.4-1.14,2.78-1.76,4.15-.62,1.37-1.28,2.72-1.98,4.06-.69,1.33-1.42,2.65-2.18,3.95-.76,1.3-1.56,2.58-2.38,3.83-.83,1.26-1.68,2.49-2.57,3.7-.89,1.21-1.81,2.4-2.76,3.57-15.89,19.11-37.51,28.55-61.86,30.53-16.47-.4-32.17-3.61-46.66-11.73-1.25-.69-2.47-1.42-3.68-2.17-1.21-.75-2.4-1.54-3.57-2.35-1.17-.82-2.32-1.66-3.45-2.53-1.13-.87-2.23-1.77-3.31-2.7-1.08-.93-2.14-1.88-3.17-2.86-1.03-.98-2.04-1.99-3.03-3.02-.98-1.03-1.94-2.09-2.87-3.17-.93-1.08-1.83-2.18-2.71-3.31-.87-1.13-1.72-2.27-2.53-3.44-.82-1.17-1.61-2.36-2.36-3.56-.76-1.21-1.48-2.43-2.18-3.68-.69-1.24-1.36-2.51-1.99-3.78-.63-1.28-1.23-2.57-1.8-3.88-.56-1.31-1.1-2.63-1.6-3.96-.5-1.34-.96-2.68-1.4-4.04-.43-1.36-.83-2.73-1.19-4.1-.39-1.47-.74-2.94-1.05-4.43-.31-1.48-.59-2.98-.83-4.48-.24-1.5-.44-3-.6-4.51-.16-1.51-.29-3.02-.37-4.54-.09-1.52-.14-3.03-.15-4.55,0-1.52.02-3.04.08-4.55.06-1.51.17-3.03.31-4.54.14-1.51.32-3.02.54-4.52.22-1.5.47-3,.77-4.49.29-1.49.62-2.97.99-4.44.37-1.47.77-2.94,1.21-4.39.44-1.45.92-2.89,1.43-4.32.51-1.43,1.06-2.84,1.65-4.24.58-1.4,1.2-2.79,1.85-4.16.65-1.37,1.34-2.72,2.06-4.06.72-1.33,1.48-2.65,2.26-3.95,12.25-20.16,30.13-32.73,52.77-38.53l-.84-221.12c-.08-42.69-1.21-85.68.69-128.32,12.14-19.91,27.98-39.97,48.64-51.32Z"/>
      <path class="cls-4" d="M2520.59,2905.22c7.32.5,15.42,1.23,22.1,4.43,11.04,5.3,20.03,15.34,23.51,27.12.4,1.36.74,2.74,1,4.14.27,1.39.46,2.8.59,4.22.13,1.42.18,2.83.17,4.25-.02,1.42-.1,2.84-.26,4.25-.16,1.41-.38,2.81-.68,4.2-.3,1.39-.66,2.76-1.1,4.11-.43,1.35-.93,2.68-1.5,3.99-.57,1.3-1.2,2.57-1.89,3.81-7.24,13.08-17.14,18.08-30.98,22.13-7.59-.69-16.02-2.53-22.72-6.21-1.38-.77-2.71-1.61-4-2.52-1.29-.91-2.53-1.88-3.72-2.92-1.19-1.03-2.33-2.12-3.42-3.28-1.08-1.15-2.11-2.35-3.07-3.6-.96-1.25-1.86-2.55-2.69-3.89-.83-1.34-1.59-2.72-2.29-4.14-.69-1.42-1.31-2.87-1.85-4.35-.55-1.48-1.02-2.99-1.41-4.52-2.73-10.6-1.62-22.58,4.21-31.98,7.17-11.57,17.07-16.58,30-19.24Z"/>
      <path class="cls-5" d="M2080.55,2195.89l258.48-.69c23.14,23.88,46.6,47.45,70.36,70.7l-31.56-.03c-86.3-1.64-173.02-1.16-259.33-.18-45.28,44.95-88.63,92.14-132.34,138.62-26.51,28.18-55.28,55.92-80.06,85.55-17.32,17.89-33.96,34.19-51.96,51.41-14.4-21.73-26.05-43-36.41-65.68,19.04-17.63,34.81-36.51,52.48-55.49,69.77-74.96,142.17-147.83,210.34-224.22Z"/>
      <path class="cls-8" d="M3035.36,2458.02c2-.06,4-.14,6-.03,15.26.83,42.68,36.63,52.93,48.39,3.71,113.82.3,231.95.34,346.18,6.45,2.75,13.18,5.47,19.1,9.27,18.67,12,31.74,32.17,35.77,53.9.25,1.39.47,2.78.65,4.18.18,1.4.33,2.8.44,4.21.11,1.4.19,2.81.23,4.22.04,1.41.04,2.82.02,4.23-.03,1.41-.1,2.82-.19,4.23-.1,1.41-.24,2.81-.41,4.21-.17,1.4-.37,2.79-.61,4.19-.24,1.39-.52,2.77-.83,4.15-.31,1.38-.65,2.74-1.03,4.1-.38,1.36-.79,2.71-1.23,4.05-.45,1.34-.93,2.66-1.44,3.98-.51,1.31-1.05,2.62-1.63,3.9-.58,1.29-1.19,2.56-1.83,3.81-.64,1.26-1.31,2.5-2.01,3.72-.7,1.22-1.44,2.42-2.2,3.61-.76,1.19-1.55,2.35-2.37,3.5-16.14,22.42-37.31,30.61-63.44,35.08-13.5-.46-27.08-2.53-39.41-8.3-20.33-9.53-35.23-26.56-42.28-47.85-7.38-22.28-6.01-48.02,5.5-68.68,11.47-20.59,31.84-33.93,54.21-39.96l-2.81-327.05c-7.4-7.39-15.43-15.21-21.77-23.55-4.96-6.53-9.12-14.95-7.08-23.37,2.22-9.16,9.94-13.66,17.4-18.28Z"/>
      <path class="cls-10" d="M3060.66,2894.07c5.53-.22,11.82-.22,17.11,1.49,1.11.35,2.2.75,3.27,1.21,1.07.46,2.11.97,3.13,1.53,1.02.56,2.01,1.18,2.96,1.84.96.66,1.88,1.37,2.76,2.12.89.76,1.73,1.55,2.54,2.39.8.84,1.57,1.71,2.29,2.63.72.92,1.39,1.87,2.01,2.85.62.98,1.2,1.99,1.72,3.03,4.33,8.62,4.21,18.96.94,27.9-4.62,12.59-13.61,18.68-25.46,23.82-3.93.08-7.81.21-11.69-.49-1.16-.2-2.31-.46-3.44-.78-1.13-.32-2.25-.7-3.34-1.14-1.09-.44-2.16-.94-3.2-1.49-1.04-.55-2.05-1.16-3.02-1.82-.98-.66-1.91-1.38-2.81-2.14-.9-.76-1.75-1.57-2.56-2.42-.81-.85-1.58-1.75-2.29-2.69-.72-.94-1.38-1.91-1.99-2.92-5.3-8.66-5.78-19.17-3.12-28.79,3.79-13.63,12.3-19.69,24.23-26.13Z"/>
      <path class="cls-8" d="M3117.05,2327.76c37.31,40.38,75.54,79.87,114.68,118.48,24.48,24.59,55.24,50.59,74.61,79.12,4.01,59.38,1.53,120.12,1.97,179.69,24.21,9.12,43.67,22.17,54.59,46.74,9.71,21.82,8.99,46.99-.28,68.83-9.16,21.59-26.76,39.76-49.04,47.7-19.32,6.89-39.96,4.58-58.14-4.49-19.09-9.53-36.6-27.19-42.84-47.98-6.69-22.32-3.85-48.58,7.98-68.66,9.86-16.72,24.11-27.75,41.06-36.65l-.03-166.39c-57.21-63.34-118.16-123.53-179.03-183.34,11.23-11.25,22.96-22.06,34.45-33.05Z"/>
      <path class="cls-13" d="M3282.6,2752.62c4.8-.22,9.77-.51,14.51.38,1.18.21,2.34.48,3.49.81,1.15.33,2.28.72,3.39,1.16,1.11.45,2.19.95,3.25,1.51,1.06.56,2.08,1.17,3.08,1.83.99.66,1.95,1.38,2.87,2.14.92.76,1.8,1.56,2.64,2.42.84.85,1.63,1.74,2.38,2.67.75.93,1.45,1.9,2.09,2.9,5.31,8.25,6.33,18.33,3.69,27.68-3.82,13.55-12.69,19.7-24.54,26.05-4.64.2-9.5.52-14.09-.35-9.89-1.88-19.06-8.4-24.1-17.12-4.93-8.53-5.48-18.86-2.41-28.12,4.13-12.44,12.65-18.08,23.75-23.96Z"/>
      <path class="cls-5" d="M3247.47,2195.78l252.89-.19c71.17,69.42,140.58,141.19,209.38,212.96,22.61,23.8,44.7,49.08,68.96,71.15-12.16,22.5-24.33,44.29-35.39,67.35-22.82-25.55-47.06-48.35-71.33-72.52l-201.89-206.44-295.88,1.01c24.01-24.76,47.63-50.22,73.25-73.32Z"/>
      <path class="cls-5" d="M3671.98,2474.53c24.27,24.17,48.5,46.97,71.33,72.52-109.62,178.82-220.08,328.48-377.08,480.17-18,17.07-56.36,57.09-74.96,73.32-17.96-17.34-36.47-33.06-54.69-50.16,22.15-22.7,80.23-83.4,104.61-110.45,129.32-139.07,228.03-267.47,288.3-382.94,15.08-26.45,31.56-53.98,42.5-82.45Z"/>
      <path class="cls-5" d="M2753.28,475.95l.44,990.29-68.5-.27c3.47-131.33.57-263.46.07-394.86l-1.29-477.45c.28-23.11-.05-46.25-.12-69.35,21.47-17.5,46.55-32.56,69.39-48.36Z"/>
      <path class="cls-5" d="M2843.93,475.52c19.56,18.51,44.82,31.26,66.65,46.94l.06,72.88,1.32,592.52c-.07,92.93.89,186.02-.96,278.92-21.87.27-47.11,2.4-68.59-1.59,3.63-81.19.35-163.83.36-245.22l-.1-488.3-.06-160.18c0-31.75-1.54-64.39,1.33-95.98Z"/>
      <path class="cls-8" d="M3045.32,682.66l49.12,28.26-.39,180.6,3.9,1.53c24.81,10.02,41.18,25.28,51.42,50,8.95,21.58,9.31,45.66.04,67.21-.55,1.27-1.13,2.52-1.74,3.76-.61,1.24-1.26,2.46-1.93,3.67-.67,1.21-1.38,2.4-2.11,3.57-.73,1.17-1.49,2.33-2.28,3.46-.79,1.13-1.61,2.25-2.45,3.34-.85,1.09-1.72,2.16-2.62,3.21-.9,1.05-1.82,2.08-2.77,3.08-.95,1-1.93,1.98-2.92,2.94-1,.96-2.02,1.89-3.07,2.79-1.04.9-2.11,1.78-3.2,2.63-1.09.85-2.2,1.68-3.33,2.47-1.13.8-2.28,1.56-3.44,2.3-1.17.74-2.35,1.45-3.56,2.13-1.2.68-2.42,1.33-3.66,1.95-1.24.62-2.49,1.2-3.75,1.76-1.26.56-2.54,1.08-3.83,1.57-1.44.54-2.9,1.05-4.38,1.52-1.47.47-2.95.91-4.44,1.31-1.49.4-2.99.76-4.5,1.09-1.51.32-3.03.61-4.55.87-1.52.25-3.05.47-4.58.64-1.53.17-3.07.31-4.61.41-1.54.1-3.09.17-4.63.19-1.54.03-3.09.01-4.63-.04-1.54-.05-3.08-.14-4.62-.26-1.54-.12-3.08-.29-4.61-.49-1.53-.2-3.06-.44-4.57-.71-1.52-.28-3.03-.59-4.54-.94-1.5-.35-3-.73-4.49-1.16-1.48-.42-2.96-.88-4.42-1.38-1.46-.49-2.91-1.02-4.35-1.59-1.44-.57-2.86-1.17-4.27-1.8-19.54-9.04-34.4-24.97-41.69-45.26-7.95-22.15-7.09-49.6,3.17-70.88,11.43-23.73,31.23-37.53,55.25-46.38-2.92-68.93-1.69-138.39-1.95-207.38Z"/>
      <path class="cls-1" d="M3058.28,936.99c5.48-.26,11.02-.45,16.46.36,10.67,1.6,20.83,8.42,26.75,17.39,5.92,8.96,7.46,19.89,4.74,30.22-3.75,14.24-12.47,20.7-24.79,27.62-7.61.55-15.67,1.31-23.16-.63-9.68-2.51-18.49-9.83-22.98-18.74-.54-1.1-1.04-2.22-1.47-3.37-.44-1.15-.82-2.31-1.14-3.49-.32-1.18-.59-2.38-.8-3.58-.21-1.21-.36-2.42-.45-3.65-.09-1.22-.13-2.45-.11-3.67.03-1.22.11-2.45.25-3.66.14-1.22.34-2.43.6-3.63.26-1.2.57-2.38.94-3.55,4.51-13.79,12.79-20.92,25.16-27.61Z"/>
      <path class="cls-8" d="M2559.09,675.94l-.3,217.07c18.79,4.16,33.58,13.7,44.18,30.06,13.24,20.44,18.06,48.07,12.82,71.78-.29,1.36-.62,2.71-.99,4.05-.36,1.34-.76,2.67-1.19,3.99-.43,1.32-.9,2.63-1.4,3.92-.5,1.29-1.03,2.58-1.6,3.84-.56,1.27-1.16,2.52-1.79,3.75-.63,1.24-1.29,2.46-1.98,3.66-.69,1.2-1.42,2.39-2.18,3.55-.75,1.17-1.54,2.31-2.35,3.43-.82,1.13-1.66,2.23-2.53,3.31-.87,1.08-1.77,2.14-2.7,3.17-.93,1.04-1.88,2.05-2.86,3.03-.98.98-1.98,1.94-3.01,2.88-1.03.93-2.08,1.84-3.15,2.72-1.07.88-2.17,1.73-3.29,2.55-1.12.82-2.26,1.61-3.42,2.38-1.16.76-2.34,1.49-3.53,2.2-20.7,12.17-47.66,14.49-70.59,8.01-21.87-6.17-40.05-20.38-50.38-40.73-.69-1.33-1.34-2.69-1.95-4.05-.62-1.37-1.19-2.75-1.74-4.15-.54-1.4-1.05-2.81-1.52-4.23-.47-1.42-.91-2.86-1.3-4.3-.4-1.44-.76-2.9-1.08-4.37-.32-1.46-.61-2.94-.85-4.41-.25-1.48-.45-2.96-.62-4.46-.17-1.49-.3-2.98-.39-4.48-.09-1.5-.15-3-.16-4.5-.01-1.5,0-3,.07-4.49.06-1.5.16-2.99.3-4.49.14-1.49.32-2.98.53-4.46.22-1.48.47-2.96.77-4.43.29-1.47.62-2.94.99-4.39.37-1.45.78-2.9,1.22-4.33.44-1.43.92-2.85,1.44-4.26,7.93-22.17,25.42-41.65,47.13-50.95,3.55-1.49,7.14-2.84,10.79-4.05-.17-61.59.87-123.44-.81-185,16.28-9.89,32.96-19.22,49.42-28.81Z"/>
      <path class="cls-13" d="M2518.74,937.11c7.34-.62,15.78-1.35,22.99.22,8.94,1.96,17.93,8.84,22.83,16.48.64.99,1.22,2.01,1.76,3.06.54,1.05,1.02,2.12,1.45,3.22.43,1.09.8,2.21,1.12,3.34.32,1.13.58,2.28.79,3.44.2,1.16.35,2.33.44,3.5.09,1.17.12,2.34.09,3.52-.03,1.18-.11,2.35-.26,3.52-.14,1.17-.35,2.33-.61,3.47-3.32,14.53-11.91,22.03-24.06,29.65-6.29.7-12.8,1.28-19.07.05-11.07-2.15-21.18-9.37-26.98-19.01-4.95-8.22-6.58-18.65-4.1-27.95,3.61-13.55,11.71-20.13,23.63-26.51Z"/>
      <path class="cls-8" d="M2273.12,821.05c16.75-6.33,32.7-13.7,48.79-21.56l-.28,260.9,127.27,127.59c35.14,34.92,71.29,69.15,105.61,104.87v173.44s-42.76.02-42.76.02l-3.55-3.27c-5.01-27.73-.69-110.45-.58-145.01l-234.07-235.96-.43-261.02Z"/>
      <path class="cls-11" d="M2475.13,2002.22v-71.41h182.58c25.58,0,37.05-15.27,37.05-44.82v-217.18h69.24v225.06c0,72.39-28.67,108.34-91.29,108.34h-197.57Z"/>
      <text/>
      <path class="cls-11" d="M2927.04,2002.22c-62.62,0-91.29-35.95-91.29-108.34v-225.06h69.24v217.18c0,29.55,11.46,44.82,37.05,44.82h182.58v71.41h-197.57Z"/>
      <path class="cls-5" d="M2683.95,2246.49c-29.28,0-39.97-13.75-39.97-38.95v-23.42c0-25.2,10.69-38.95,39.97-38.95h146.12v-10.95c0-15.78-6.87-23.42-21.38-23.42h-160.38v-36.66h169.04c35.9,0,52.44,18.58,52.44,56.01v116.34h-185.84ZM2830.07,2173.94h-131.61c-10.69,0-14.77,5.35-14.77,15.02v8.66c0,10.18,4.07,15.53,14.77,15.53h131.61v-39.2ZM2896,2246.49v-172.35h39.97v172.35h-39.97Z"/>
    </g>
  </g>
</svg>