<?xml version="1.0" encoding="UTF-8"?><svg id="Layer_2" xmlns="http://www.w3.org/2000/svg" viewBox="0 0 500 457.76"><defs><style>.cls-1{fill:#000e72;}.cls-2{fill:#ffca3a;}.cls-3{fill:#ff595e;}.cls-4{fill:#fff;}.cls-5{fill:#8ac926;}.cls-6{fill:#94d6ff;}.cls-7{fill:#45dcff;}.cls-8{fill:#b2b2b2;}</style></defs><g id="Laag_1"><path class="cls-6" d="M251.11,457.76c-1.49,0-2.98-.13-4.44-.37-1.46.24-2.95.37-4.43.37h-35.33c-5.71,0-11.23-1.84-15.77-5.16-4.54,3.32-10.05,5.16-15.77,5.16h-35.33c-8.06,0-15.61-3.58-20.7-9.84-5.09-6.25-7.07-14.36-5.44-22.26l8.19-39.66c-.69.03-1.38.05-2.08.05-5.03,0-9.8-.83-14.18-2.48-15.85-5.85-22.09-20.23-25.4-30.06-5.85,2.4-13.17,4.91-21.46,4.91-6.5,0-12.56-1.53-18.03-4.54-16.63-9.07-27.87-32.98-18.04-54.1,4.4-9.18,9.44-18.13,15.32-27.18-.55-.11-1.1-.22-1.65-.36-10.91-2.56-20.18-9.23-26.09-18.78-5.91-9.55-7.75-20.81-5.19-31.72,3.68-15.65,15.63-27.55,30.96-31.22l3.93-16.72h-13.49c-14.72,0-26.69-11.97-26.69-26.69V36.2C0,21.48,11.97,9.51,26.69,9.51h37.55c3.81,0,7.56.81,11.01,2.38,3.44-1.56,7.2-2.38,11.02-2.38h29.17c5.04-6,12.48-9.51,20.43-9.51h76.68c7.95,0,15.38,3.51,20.43,9.51h26.79c4.99,0,9.83,1.39,14.02,3.98,4.19-2.59,9.03-3.98,14.02-3.98h39.76c1.19,0,2.38.08,3.56.24,1.18-.16,2.38-.24,3.58-.24h91.89c14.72,0,26.69,11.97,26.69,26.69v21.76c5.71,2.56,10.37,7.07,13.13,12.81l.45.95c.61.5,1.52,1.19,2.72,1.95,14.12,9.21,21.66,25.8,19.26,42.29-.02.15-.06.42-.11.68-.34,2.02-.85,4.03-1.5,6.01.72,2.77,1.38,5.42,2.01,8.05.21.9.38,1.81.5,2.73.27.76.5,1.54.7,2.33.13.52.24,1.01.33,1.51.69,3.12,1.45,6.39,2.2,9.61,2.6,11.19,5.28,22.71,6.28,33.57,1.26,13.53,4.2,45.22-24.27,51.5-2.28.5-4.49.75-6.75.75-2.84,0-5.57-.35-8.16-1.05v54.63c0,14.72-11.97,26.69-26.69,26.69h-13.26l13.09,36.95c4.63,13.06-1.36,27.31-13.93,33.13-1.22.58-2.48,1.08-3.79,1.48-8.51,2.64-16.06,7.74-23.07,15.6l-.49.55c-.3.34-.61.67-.89,1.03-5.42,6.83-13.44,10.74-21.99,10.74-1.9,0-3.82-.19-5.71-.58-4.27-.85-8.52-1.28-12.6-1.28-.79,0-1.59.01-2.38.05-5.6.23-10.82,1.32-15.96,3.33-.76.3-1.69.62-2.72.93-2.5.78-5.17,1.19-7.86,1.19-3.17,0-6.25-.56-9.15-1.62v16.61c0,14.72-11.97,26.69-26.69,26.69h-34.85Z"/><path class="cls-1" d="M251.11,452.19c-1.52,0-3.01-.16-4.45-.47-1.44.31-2.93.47-4.43.47h-35.33c-6.2,0-11.86-2.69-15.77-7.06-3.9,4.37-9.56,7.06-15.76,7.06h-35.33c-6.35,0-12.37-2.86-16.38-7.78-4.01-4.93-5.59-11.4-4.31-17.62l9.78-47.36c-2.92.69-5.99,1.05-9.12,1.05h0c-4.36,0-8.47-.71-12.22-2.12-15.48-5.71-20.35-21.07-23.26-30.25-.08-.24-.16-.51-.25-.79-.56-.26-1.13-.52-1.69-.77-.27.11-.53.22-.76.32-5.87,2.52-13.92,5.98-22.86,5.98-5.55,0-10.71-1.29-15.34-3.85-14.39-7.84-24.19-28.59-15.68-46.88,5.56-11.6,12.17-22.81,20.26-34.39-.67.04-1.35.05-2.03.05-2.8,0-5.6-.32-8.34-.97-9.47-2.23-17.51-8.01-22.63-16.29s-6.73-18.05-4.5-27.52c3.48-14.79,15.49-25.59,30.14-27.72l5.51-23.45c.29-1.25.68-2.45,1.14-3.62h-20.81c-11.67,0-21.13-9.46-21.13-21.13V36.2c0-11.67,9.46-21.13,21.13-21.13h37.55c3.96,0,7.75,1.11,11.01,3.09,3.21-1.96,6.98-3.09,11.01-3.09h31.95c3.78-5.73,10.27-9.51,17.65-9.51h76.68c7.38,0,13.87,3.78,17.65,9.51h29.57c5.25,0,10.21,1.94,14.02,5.33,3.8-3.38,8.77-5.33,14.02-5.33h39.76c1.2,0,2.39.1,3.56.3,1.16-.2,2.36-.3,3.58-.3h91.89c11.67,0,21.13,9.46,21.13,21.13v25.68c5.94,1.56,10.97,5.66,13.68,11.3l.96,2c.8.73,2.24,1.9,4.24,3.18,12.33,8.05,18.84,22.45,16.75,36.79-.02.18-.05.35-.08.53-.4,2.32-1.02,4.58-1.83,6.74.89,3.34,1.68,6.49,2.41,9.57.22.91.37,1.83.46,2.74.3.78.55,1.58.76,2.4.1.39.19.79.26,1.18.73,3.33,1.5,6.63,2.26,9.89,2.55,10.96,5.18,22.29,6.15,32.77,1.21,13.09,3.74,40.33-19.92,45.55-1.89.42-3.7.62-5.55.62h0c-5.47,0-9.97-1.55-13.73-4.07v63.22c0,11.67-9.46,21.13-21.13,21.13h-21.14l15.72,44.37c3.65,10.29-1.16,21.65-11.02,26.22-.7.34-1.74.79-3.08,1.21-9.5,2.95-17.89,8.58-25.59,17.21l-.25.28c-.46.51-.93,1.02-1.35,1.55-4.37,5.5-10.77,8.61-17.62,8.61-1.52,0-3.07-.15-4.6-.46-4.62-.92-9.25-1.39-13.71-1.39-.87,0-1.74.02-2.61.05-6.22.26-12.03,1.47-17.76,3.71-.7.28-1.48.54-2.27.77-2.09.66-4.2.96-6.28.96-5.54,0-10.82-2.22-14.72-6.06v26.61c0,11.67-9.46,21.13-21.13,21.13h-34.85Z"/><path class="cls-1" d="M121.12,36.2v110.9h-36.44l-23.13-46.1v46.1H26.69V36.2h37.55l22.02,45.47v-45.47h34.85ZM135.86,26.69h76.68v33.11h-41.83v17.58h35.81v31.37h-35.81v16.48h41.83v31.37h-76.68V26.69ZM272.75,119.69l-14.58,27.41h-39.77l32.48-57.67-31.21-53.23h40.08l14.74,25.51,13.31-25.51h39.76l-31.21,55.45,32.48,55.45h-40.08l-16-27.41ZM363.22,69.31h-28.52v-33.11h91.89v33.11h-28.52v87.3h-34.85v-87.3ZM142.18,245.89v-23.76c0-30.58,19.01-49.91,48.8-49.91,31.37,0,46.58,16.32,48,46.9h-34.85c-1.74-10.62-4.28-13.79-13.47-13.79s-13.63,5.86-13.63,16.95v25.19c0,12.36,3.96,16.95,14.74,16.95,9.19,0,12.36-2.85,12.36-9.98v-.47h-17.9v-27.88h52.76v23.92c0,29.63-16.48,45.79-47.21,45.79s-49.59-18.22-49.59-49.91ZM250.55,165.88h76.68v33.11h-41.83v17.58h35.81v31.37h-35.81v16.48h41.83v31.37h-76.68v-129.92ZM433.39,175.39v110.9h-36.44l-23.13-46.1v46.1h-34.85v-110.9h37.55l22.02,45.47v-45.47h34.85ZM164.92,310.66h52.44l24.87,120.41h-35.33l-3.8-20.28h-23.92l-3.8,20.28h-35.33l24.87-120.41ZM197.4,379.42l-6.18-34.22-6.34,34.22h12.51ZM251.11,310.66h34.85v120.41h-34.85v-120.41ZM450.05,125.23c5.84-1.29,11.19-6.19,12.38-13.12.91-6.23-1.91-12.48-7.22-15.95-5.9-3.77-9.98-7.82-10.97-9.88l-1.9-3.97-2.63,3.53c-.65.86-1.29,1.79-1.91,2.77-4.6,7.2-8.41,17.15-7.09,24.68,1.37,7.44,10.32,13.92,19.34,11.94ZM453.45,140.84c3.6-.79,6.9-2.17,9.82-3.99-.89-3.76-1.85-7.48-2.84-11.14-2.58,2.3-5.71,3.94-9.24,4.71-3.53.78-7.19.61-10.63-.44.62,3.69,1.3,7.42,2.06,11.23,3.5.55,7.21.48,10.84-.37ZM469.24,205.9c2.75-.61,5.3-2.87,3.44-22.97-1.11-11.96-4.92-26.03-8.05-40.29l-.06-.29h0s-.02-.09-.02-.09c-3.03,1.68-6.35,2.98-9.92,3.77-3.62.85-7.33,1.04-10.92.68l.02.1h.02s.09.41.09.41c3.14,14.25,8.61,27.95,12.63,39.27,6.75,19.01,10.01,20.01,12.77,19.4ZM127.48,180.11c-.65-.9-1.65-1.47-2.75-1.57l-53.74-4.79c-1.89-.17-3.62,1.08-4.05,2.93l-3.49,14.86-6.74,28.69c-1.9-1.8-4.28-3.14-7-3.78-8.22-1.93-16.48,3.18-18.41,11.4-1.93,8.22,3.18,16.48,11.4,18.41,8.22,1.93,16.48-3.18,18.41-11.4l9.02-38.35,46.06,4.11-5.74,24.41c-1.9-1.8-4.28-3.14-7-3.78-8.22-1.93-16.48,3.18-18.41,11.4-1.93,8.22,3.18,16.48,11.4,18.41,8.22,1.93,16.48-3.18,18.41-11.4l9.77-41.57,3.49-14.86c.25-1.08.03-2.21-.62-3.11ZM134.36,350.94c5-11.48,8.92-23.6,12.03-36.23,1.9-8.89-1.28-19.04-11.36-24.29-7.48-3.8-10.94-.13-19.54-4.17-2.36-1.1-4.72-2.18-7.09-3.24-8.68-3.87-8.17-8.89-15.93-12.06-10.57-4.2-20.51-.07-25.81,7.29-7.52,10.61-14.13,21.5-19.54,32.8-3.67,7.9,1.74,16.76,6.74,19.48,9.63,5.32,25.6-8.65,31.64-5.89,4.49,2.08,8.99,4.14,13.5,6.17,6.04,2.76,5.91,23.98,16.24,27.79,5.33,2,15.78.36,19.13-7.64h0ZM89.81,303.7l-4.65-2.13-2.13,4.65c-.9,1.96-3.22,2.83-5.18,1.93-1.96-.9-2.83-3.22-1.93-5.18l2.13-4.65-4.65-2.13c-1.96-.9-2.83-3.22-1.93-5.18.9-1.96,3.22-2.83,5.18-1.93l4.65,2.13,2.13-4.65c.9-1.96,3.22-2.83,5.18-1.93,1.96.9,2.83,3.22,1.93,5.18l-2.13,4.65,4.65,2.13c1.96.9,2.83,3.22,1.93,5.18-.9,1.96-3.22,2.83-5.18,1.93h0ZM114.78,325.05c-2.82-1.2-4.13-4.45-2.93-7.27,1.2-2.82,4.46-4.14,7.28-2.94,2.82,1.2,4.13,4.46,2.93,7.28-1.2,2.82-4.46,4.13-7.28,2.93h0ZM129.32,315.45c-2.82-1.19-4.13-4.46-2.94-7.27,1.21-2.82,4.46-4.13,7.28-2.93,2.82,1.2,4.13,4.46,2.93,7.28-1.2,2.82-4.46,4.13-7.28,2.93ZM321.9,389.35c.25-.08.51-.14.76-.24,7.91-3.1,16.11-4.8,24.6-5.15,7.19-.29,14.31.33,21.36,1.74.64.13,1.03,0,1.44-.51.77-.98,1.61-1.91,2.44-2.84,9.68-10.84,21.15-18.99,35.14-23.34.13-.04.26-.11.4-.18-6.19-17.48-12.36-34.91-18.57-52.42-1.87.66-3.67,1.3-5.54,1.96.15.42.28.78.41,1.15,4.98,14.06,9.96,28.12,14.94,42.18.65,1.84.2,2.75-1.66,3.28-5.61,1.62-10.91,3.91-15.76,7.19-5.38,3.63-9.93,8.1-13.79,13.3-1.74,2.34-1.72,2.32-4.58,1.62-1.73-.42-3.48-.81-5.23-1.11-7.39-1.24-14.76-1.08-22.01.89-2.98.81-5.87,1.95-8.78,2.98-1.55.55-2.51.17-3.09-1.38-.09-.25-.18-.5-.27-.76-4.93-13.92-9.86-27.84-14.79-41.75-.12-.35-.28-.69-.39-.97-1.92.68-3.74,1.32-5.56,1.97,6.18,17.46,12.37,34.92,18.55,52.37ZM327.62,375.46c11.32-4.52,22.88-5.33,34.81-2.74-.12-.33-.17-.47-.22-.61-5.48-15.46-10.96-30.93-16.42-46.4-.2-.57-.54-.77-1.06-.9-7.78-1.95-15.62-2.36-23.52-.92-3.67.67-7.23,1.72-10.73,3.18,5.73,16.18,11.43,32.27,17.14,48.39ZM377.29,303.38c-2.44.94-4.95,1.74-7.31,2.86-8.11,3.84-14.73,9.52-20.13,16.65-.45.59-.52,1.06-.27,1.76,5.42,15.23,10.81,30.46,16.2,45.69.11.3.21.6.38,1.06,7.66-9.6,17.21-16.2,28.79-19.81-5.73-16.18-11.42-32.24-17.12-48.35-.21.05-.38.06-.54.12Z"/><path class="cls-8" d="M121.12,36.2v110.9h-36.44l-23.13-46.1v46.1H26.69V36.2h37.55l22.02,45.47v-45.47h34.85ZM135.86,26.69h76.68v33.11h-41.83v17.58h35.81v31.37h-35.81v16.48h41.83v31.37h-76.68V26.69ZM272.75,119.69l-14.58,27.41h-39.77l32.48-57.67-31.21-53.23h40.08l14.74,25.51,13.31-25.51h39.76l-31.21,55.45,32.48,55.45h-40.08l-16-27.41ZM363.22,69.31h-28.52v-33.11h91.89v33.11h-28.52v87.3h-34.85v-87.3ZM142.18,245.89v-23.76c0-30.58,19.01-49.91,48.8-49.91,31.37,0,46.58,16.32,48,46.9h-34.85c-1.74-10.62-4.28-13.79-13.47-13.79s-13.63,5.86-13.63,16.95v25.19c0,12.36,3.96,16.95,14.74,16.95,9.19,0,12.36-2.85,12.36-9.98v-.47h-17.9v-27.88h52.76v23.92c0,29.63-16.48,45.79-47.21,45.79s-49.59-18.22-49.59-49.91ZM250.55,165.88h76.68v33.11h-41.83v17.58h35.81v31.37h-35.81v16.48h41.83v31.37h-76.68v-129.92ZM433.39,175.39v110.9h-36.44l-23.13-46.1v46.1h-34.85v-110.9h37.55l22.02,45.47v-45.47h34.85ZM164.92,310.66h52.44l24.87,120.41h-35.33l-3.8-20.28h-23.92l-3.8,20.28h-35.33l24.87-120.41ZM197.4,379.42l-6.18-34.22-6.34,34.22h12.51ZM251.11,310.66h34.85v120.41h-34.85v-120.41Z"/><path class="cls-4" d="M254.82,427.35v-112.98h27.43v112.98h-27.43ZM209.99,427.35l-3.24-17.25c-.33-1.75-1.86-3.03-3.65-3.03h-23.92c-1.79,0-3.32,1.27-3.65,3.03l-3.24,17.25h-27.69l23.34-112.98h46.39l23.34,112.98h-27.69ZM191.22,341.48c-1.79,0-3.32,1.28-3.65,3.04l-6.34,34.22c-.2,1.08.09,2.2.8,3.05.7.85,1.75,1.34,2.85,1.34h12.51c1.1,0,2.14-.49,2.85-1.33.7-.84,1-1.96.8-3.04l-6.18-34.22c-.32-1.76-1.85-3.05-3.64-3.05h0ZM254.26,292.08v-122.49h69.26v25.69h-38.12c-2.05,0-3.71,1.66-3.71,3.71v17.58c0,2.05,1.66,3.71,3.71,3.71h32.09v23.95h-32.09c-2.05,0-3.71,1.66-3.71,3.71v16.48c0,2.05,1.66,3.71,3.71,3.71h38.12v23.94h-69.26ZM191.77,292.08c-29.59,0-45.88-16.41-45.88-46.19v-23.76c0-28.49,17.28-46.19,45.09-46.19s41.59,12.93,44.03,39.47h-27.8c-1.96-9.15-5.59-13.79-16.55-13.79s-17.34,7.53-17.34,20.66v25.19c0,14.48,5.52,20.66,18.45,20.66,6.9,0,16.07-1.42,16.07-13.69v-.47c0-2.05-1.66-3.71-3.71-3.71h-14.19v-20.46h45.34v20.21c0,27.53-15.04,42.07-43.5,42.07ZM399.24,282.58l-22.11-44.06c-.64-1.28-1.94-2.05-3.32-2.05-.28,0-.57.03-.86.1-1.67.4-2.86,1.89-2.86,3.61v42.39h-27.43v-103.48h31.51l21.01,43.38c.63,1.3,1.94,2.09,3.34,2.09.28,0,.55-.03.83-.09,1.69-.39,2.88-1.89,2.88-3.62v-41.76h27.43v103.48h-30.44ZM366.93,152.9v-83.59c0-2.05-1.66-3.71-3.71-3.71h-24.81v-25.69h84.47v25.69h-24.81c-2.05,0-3.71,1.66-3.71,3.71v83.59h-27.43ZM139.57,152.9V30.41h69.26v25.69h-38.11c-2.05,0-3.71,1.66-3.71,3.71v17.58c0,2.05,1.66,3.71,3.71,3.71h32.09v23.95h-32.09c-2.05,0-3.71,1.66-3.71,3.71v16.48c0,2.05,1.66,3.71,3.71,3.71h38.11v23.95h-69.26ZM290.88,143.39l-14.93-25.57c-.67-1.14-1.89-1.84-3.21-1.84h-.07c-1.34.03-2.57.78-3.2,1.97l-13.53,25.44h-31.19l29.36-52.14c.65-1.15.64-2.56-.03-3.7l-27.94-47.64h31.46l13.66,23.65c.66,1.15,1.89,1.86,3.21,1.86h.08c1.35-.03,2.58-.79,3.21-2l12.27-23.51h31.17l-28.1,49.92c-.65,1.15-.63,2.56.03,3.7l29.21,49.86h-31.48ZM86.97,143.39l-22.1-44.06c-.64-1.28-1.94-2.05-3.32-2.05-.28,0-.57.03-.86.1-1.67.4-2.86,1.89-2.86,3.61v42.39h-27.43V39.91h31.51l21.01,43.38c.63,1.3,1.94,2.09,3.34,2.09.28,0,.55-.03.83-.09,1.69-.39,2.88-1.89,2.88-3.62v-41.76h27.43v103.48h-30.44Z"/><path class="cls-5" d="M450.05,125.23c5.84-1.29,11.19-6.19,12.38-13.12.91-6.23-1.91-12.48-7.22-15.95-5.9-3.77-9.98-7.82-10.97-9.88l-1.9-3.97-2.63,3.53c-.65.86-1.29,1.79-1.91,2.77-4.6,7.2-8.41,17.15-7.09,24.68,1.37,7.44,10.32,13.92,19.34,11.94Z"/><path class="cls-5" d="M453.45,140.84c3.6-.79,6.9-2.17,9.82-3.99-.89-3.76-1.85-7.48-2.84-11.14-2.58,2.3-5.71,3.94-9.24,4.71-3.53.78-7.19.61-10.63-.44.62,3.69,1.3,7.42,2.06,11.23,3.5.55,7.21.48,10.84-.37Z"/><path class="cls-5" d="M469.24,205.9c2.75-.61,5.3-2.87,3.44-22.97-1.11-11.96-4.92-26.03-8.05-40.29l-.06-.29h0s-.02-.09-.02-.09c-3.03,1.68-6.35,2.98-9.92,3.77-3.62.85-7.33,1.04-10.92.68l.02.1h.02s.09.41.09.41c3.14,14.25,8.61,27.95,12.63,39.27,6.75,19.01,10.01,20.01,12.77,19.4Z"/><path class="cls-3" d="M127.48,180.11c-.65-.9-1.65-1.47-2.75-1.57l-53.74-4.79c-1.89-.17-3.62,1.08-4.05,2.93l-3.49,14.86-6.74,28.69c-1.9-1.8-4.28-3.14-7-3.78-8.22-1.93-16.48,3.18-18.41,11.4-1.93,8.22,3.18,16.48,11.4,18.41,8.22,1.93,16.48-3.18,18.41-11.4l9.02-38.35,46.06,4.11-5.74,24.41c-1.9-1.8-4.28-3.14-7-3.78-8.22-1.93-16.48,3.18-18.41,11.4-1.93,8.22,3.18,16.48,11.4,18.41,8.22,1.93,16.48-3.18,18.41-11.4l9.77-41.57,3.49-14.86c.25-1.08.03-2.21-.62-3.11Z"/><g id="e"><path class="cls-2" d="M134.36,350.94c5-11.48,8.92-23.6,12.03-36.23,1.9-8.89-1.28-19.04-11.36-24.29-7.48-3.8-10.94-.13-19.54-4.17-2.36-1.1-4.72-2.18-7.09-3.24-8.68-3.87-8.17-8.89-15.93-12.06-10.57-4.2-20.51-.07-25.81,7.29-7.52,10.61-14.13,21.5-19.54,32.8-3.67,7.9,1.74,16.76,6.74,19.48,9.63,5.32,25.6-8.65,31.64-5.89,4.49,2.08,8.99,4.14,13.5,6.17,6.04,2.76,5.91,23.98,16.24,27.79,5.33,2,15.78.36,19.13-7.64h0ZM89.81,303.7l-4.65-2.13-2.13,4.65c-.9,1.96-3.22,2.83-5.18,1.93-1.96-.9-2.83-3.22-1.93-5.18l2.13-4.65-4.65-2.13c-1.96-.9-2.83-3.22-1.93-5.18.9-1.96,3.22-2.83,5.18-1.93l4.65,2.13,2.13-4.65c.9-1.96,3.22-2.83,5.18-1.93,1.96.9,2.83,3.22,1.93,5.18l-2.13,4.65,4.65,2.13c1.96.9,2.83,3.22,1.93,5.18-.9,1.96-3.22,2.83-5.18,1.93h0ZM114.78,325.05c-2.82-1.2-4.13-4.45-2.93-7.27,1.2-2.82,4.46-4.14,7.28-2.94,2.82,1.2,4.13,4.46,2.93,7.28-1.2,2.82-4.46,4.13-7.28,2.93h0ZM129.32,315.45c-2.82-1.19-4.13-4.46-2.94-7.27,1.21-2.82,4.46-4.13,7.28-2.93,2.82,1.2,4.13,4.46,2.93,7.28-1.2,2.82-4.46,4.13-7.28,2.93Z"/></g><path class="cls-7" d="M303.35,336.98c1.82-.64,3.64-1.29,5.56-1.97.11.28.27.62.39.97,4.93,13.92,9.86,27.84,14.79,41.75.09.25.18.51.27.76.58,1.55,1.54,1.93,3.09,1.38,2.91-1.04,5.8-2.17,8.78-2.98,7.25-1.97,14.61-2.13,22.01-.89,1.76.29,3.5.68,5.23,1.11,2.86.7,2.85.72,4.58-1.62,3.86-5.2,8.41-9.68,13.79-13.3,4.86-3.27,10.15-5.57,15.76-7.19,1.86-.54,2.31-1.44,1.66-3.28-4.98-14.06-9.96-28.12-14.94-42.18-.13-.36-.26-.72-.41-1.15,1.87-.66,3.67-1.3,5.54-1.96,6.2,17.51,12.38,34.94,18.57,52.42-.15.07-.27.14-.4.18-13.99,4.34-25.46,12.49-35.14,23.34-.83.93-1.67,1.86-2.44,2.84-.41.51-.8.63-1.44.51-7.05-1.4-14.17-2.03-21.36-1.74-8.49.35-16.69,2.05-24.6,5.15-.25.1-.51.16-.76.24-6.18-17.46-12.37-34.92-18.55-52.37Z"/><path class="cls-7" d="M310.48,327.07c3.5-1.45,7.06-2.51,10.73-3.18,7.91-1.44,15.74-1.03,23.52.92.53.13.86.33,1.06.9,5.46,15.47,10.94,30.93,16.42,46.4.05.14.1.28.22.61-11.93-2.59-23.49-1.78-34.81,2.74-5.71-16.12-11.41-32.21-17.14-48.39Z"/><path class="cls-7" d="M377.83,303.26c5.7,16.11,11.39,32.17,17.12,48.35-11.58,3.62-21.14,10.22-28.79,19.81-.17-.47-.27-.77-.38-1.06-5.4-15.23-10.79-30.47-16.2-45.69-.25-.7-.18-1.17.27-1.76,5.4-7.14,12.03-12.81,20.13-16.65,2.36-1.12,4.86-1.92,7.31-2.86.16-.06.34-.08.54-.12Z"/></g></svg>